<ttFont>
<head>
    <!-- Most of this table will be recalculated by the compiler -->
    <tableVersion value="1.0"/>
    <fontRevision value="0.84999"/>
    <checkSumAdjustment value="0x94c79395"/>
    <magicNumber value="0x5f0f3cf5"/>
    <flags value="00000000 00000111"/>
    <unitsPerEm value="1000"/>
    <created value="Sat Nov 28 12:14:13 2020"/>
    <modified value="Wed Sep  1 18:33:29 2021"/>
    <xMin value="-156"/>
    <yMin value="-219"/>
    <xMax value="653"/>
    <yMax value="1024"/>
    <macStyle value="00000000 00000001"/>
    <lowestRecPPEM value="7"/>
    <fontDirectionHint value="2"/>
    <indexToLocFormat value="0"/>
    <glyphDataFormat value="0"/>
  </head>
    <TTGlyph name=".notdef" xMin="98" yMin="-200" xMax="431" yMax="850">
      <contour>
        <pt x="431" y="-200" on="1"/>
        <pt x="98" y="-200" on="1"/>
        <pt x="98" y="850" on="1"/>
        <pt x="431" y="850" on="1"/>
      </contour>
      <contour>
        <pt x="350" y="-128" on="1"/>
        <pt x="350" y="-93" on="1"/>
        <pt x="243" y="-93" on="1"/>
        <pt x="316" y="-44" on="1"/>
        <pt x="350" y="-44" on="1"/>
        <pt x="350" y="-9" on="1"/>
        <pt x="175" y="-9" on="1"/>
        <pt x="175" y="-44" on="1"/>
        <pt x="249" y="-44" on="1"/>
        <pt x="175" y="-93" on="1"/>
        <pt x="175" y="-128" on="1"/>
      </contour>
      <contour>
        <pt x="350" y="15" on="1"/>
        <pt x="350" y="134" on="1"/>
        <pt x="175" y="134" on="1"/>
        <pt x="175" y="15" on="1"/>
      </contour>
      <contour>
        <pt x="350" y="197" on="1"/>
        <pt x="350" y="316" on="1"/>
        <pt x="245" y="316" on="1"/>
        <pt x="245" y="257" on="1"/>
        <pt x="280" y="257" on="1"/>
        <pt x="280" y="281" on="1"/>
        <pt x="315" y="281" on="1"/>
        <pt x="315" y="232" on="1"/>
        <pt x="210" y="232" on="1"/>
        <pt x="210" y="316" on="1"/>
        <pt x="175" y="316" on="1"/>
        <pt x="175" y="197" on="1"/>
      </contour>
      <contour>
        <pt x="350" y="339" on="1"/>
        <pt x="350" y="444" on="1"/>
        <pt x="315" y="444" on="1"/>
        <pt x="315" y="374" on="1"/>
        <pt x="175" y="374" on="1"/>
        <pt x="175" y="339" on="1"/>
      </contour>
      <contour>
        <pt x="280" y="399" on="1"/>
        <pt x="280" y="472" on="1"/>
        <pt x="350" y="472" on="1"/>
        <pt x="350" y="507" on="1"/>
        <pt x="175" y="507" on="1"/>
        <pt x="175" y="472" on="1"/>
        <pt x="245" y="472" on="1"/>
        <pt x="245" y="433" on="1"/>
        <pt x="175" y="433" on="1"/>
        <pt x="175" y="399" on="1"/>
      </contour>
      <contour>
        <pt x="350" y="535" on="1"/>
        <pt x="350" y="571" on="1"/>
        <pt x="280" y="571" on="1"/>
        <pt x="280" y="644" on="1"/>
        <pt x="175" y="644" on="1"/>
        <pt x="175" y="535" on="1"/>
      </contour>
      <contour>
        <pt x="350" y="672" on="1"/>
        <pt x="350" y="706" on="1"/>
        <pt x="280" y="706" on="1"/>
        <pt x="280" y="745" on="1"/>
        <pt x="350" y="745" on="1"/>
        <pt x="350" y="780" on="1"/>
        <pt x="176" y="780" on="1"/>
        <pt x="176" y="745" on="1"/>
        <pt x="245" y="745" on="1"/>
        <pt x="245" y="706" on="1"/>
        <pt x="175" y="706" on="1"/>
        <pt x="175" y="672" on="1"/>
      </contour>
      <contour>
        <pt x="210" y="99" on="1"/>
        <pt x="315" y="99" on="1"/>
        <pt x="315" y="50" on="1"/>
        <pt x="210" y="50" on="1"/>
      </contour>
      <contour>
        <pt x="210" y="609" on="1"/>
        <pt x="245" y="609" on="1"/>
        <pt x="245" y="571" on="1"/>
        <pt x="210" y="571" on="1"/>
      </contour>
    </TTGlyph>
    <TTGlyph name="A" xMin="30" yMin="0" xMax="620" yMax="800">
      <contour>
        <pt x="405" y="239" on="1"/>
        <pt x="239" y="239" on="1"/>
        <pt x="194" y="0" on="1"/>
        <pt x="30" y="0" on="1"/>
        <pt x="193" y="800" on="1"/>
        <pt x="457" y="800" on="1"/>
        <pt x="620" y="0" on="1"/>
        <pt x="450" y="0" on="1"/>
      </contour>
      <contour>
        <pt x="376" y="392" on="1"/>
        <pt x="322" y="675" on="1"/>
        <pt x="269" y="392" on="1"/>
      </contour>
    </TTGlyph>
    <TTGlyph name="B" xMin="81" yMin="0" xMax="615" yMax="800">
      <contour>
        <pt x="473" y="800" on="0"/>
        <pt x="615" y="688" on="0"/>
        <pt x="615" y="585" on="1"/>
        <pt x="615" y="514" on="0"/>
        <pt x="543" y="428" on="0"/>
        <pt x="475" y="419" on="1"/>
        <pt x="475" y="382" on="1"/>
        <pt x="540" y="372" on="0"/>
        <pt x="610" y="288" on="0"/>
        <pt x="610" y="219" on="1"/>
        <pt x="610" y="114" on="0"/>
        <pt x="468" y="0" on="0"/>
        <pt x="338" y="0" on="1"/>
        <pt x="81" y="0" on="1"/>
        <pt x="81" y="800" on="1"/>
        <pt x="343" y="800" on="1"/>
      </contour>
      <contour>
        <pt x="338" y="151" on="1"/>
        <pt x="392" y="151" on="0"/>
        <pt x="448" y="196" on="0"/>
        <pt x="448" y="240" on="1"/>
        <pt x="448" y="284" on="0"/>
        <pt x="392" y="330" on="0"/>
        <pt x="338" y="330" on="1"/>
        <pt x="243" y="330" on="1"/>
        <pt x="243" y="151" on="1"/>
      </contour>
      <contour>
        <pt x="343" y="471" on="1"/>
        <pt x="397" y="471" on="0"/>
        <pt x="453" y="516" on="0"/>
        <pt x="453" y="560" on="1"/>
        <pt x="453" y="604" on="0"/>
        <pt x="397" y="649" on="0"/>
        <pt x="343" y="649" on="1"/>
        <pt x="243" y="649" on="1"/>
        <pt x="243" y="471" on="1"/>
      </contour>
    </TTGlyph>
    <TTGlyph name="C" xMin="56" yMin="-19" xMax="615" yMax="819">
      <contour>
        <pt x="56" y="-19" on="0"/>
        <pt x="56" y="400" on="1"/>
        <pt x="56" y="819" on="0"/>
        <pt x="345" y="819" on="1"/>
        <pt x="469" y="819" on="0"/>
        <pt x="605" y="667" on="0"/>
        <pt x="615" y="516" on="1"/>
        <pt x="456" y="516" on="1"/>
        <pt x="448" y="592" on="0"/>
        <pt x="394" y="663" on="0"/>
        <pt x="345" y="663" on="1"/>
        <pt x="280" y="663" on="0"/>
        <pt x="218" y="536" on="0"/>
        <pt x="218" y="400" on="1"/>
        <pt x="218" y="264" on="0"/>
        <pt x="276" y="137" on="0"/>
        <pt x="338" y="137" on="1"/>
        <pt x="385" y="137" on="0"/>
        <pt x="437" y="203" on="0"/>
        <pt x="444" y="272" on="1"/>
        <pt x="604" y="272" on="1"/>
        <pt x="577" y="-19" on="0"/>
        <pt x="338" y="-19" on="1"/>
      </contour>
    </TTGlyph>
    <TTGlyph name="D" xMin="63" yMin="0" xMax="603" yMax="800">
      <contour>
        <pt x="63" y="800" on="1"/>
        <pt x="283" y="800" on="1"/>
        <pt x="447" y="800" on="0"/>
        <pt x="603" y="605" on="0"/>
        <pt x="603" y="400" on="1"/>
        <pt x="603" y="195" on="0"/>
        <pt x="447" y="0" on="0"/>
        <pt x="283" y="0" on="1"/>
        <pt x="63" y="0" on="1"/>
      </contour>
      <contour>
        <pt x="283" y="156" on="1"/>
        <pt x="360" y="156" on="0"/>
        <pt x="435" y="276" on="0"/>
        <pt x="435" y="400" on="1"/>
        <pt x="435" y="524" on="0"/>
        <pt x="360" y="644" on="0"/>
        <pt x="283" y="644" on="1"/>
        <pt x="225" y="644" on="1"/>
        <pt x="225" y="156" on="1"/>
      </contour>
    </TTGlyph>
    <TTGlyph name="E" xMin="98" yMin="0" xMax="588" yMax="800">
      <contour>
        <pt x="98" y="800" on="1"/>
        <pt x="588" y="800" on="1"/>
        <pt x="588" y="644" on="1"/>
        <pt x="261" y="644" on="1"/>
        <pt x="261" y="473" on="1"/>
        <pt x="534" y="473" on="1"/>
        <pt x="534" y="324" on="1"/>
        <pt x="261" y="324" on="1"/>
        <pt x="261" y="156" on="1"/>
        <pt x="568" y="156" on="1"/>
        <pt x="568" y="0" on="1"/>
        <pt x="98" y="0" on="1"/>
      </contour>
    </TTGlyph>
    <TTGlyph name="Euro" xMin="40" yMin="-19" xMax="623" yMax="819">
      <contour>
        <pt x="250" y="-19" on="0"/>
        <pt x="125" y="118" on="0"/>
        <pt x="107" y="260" on="1"/>
        <pt x="40" y="260" on="1"/>
        <pt x="40" y="371" on="1"/>
        <pt x="99" y="371" on="1"/>
        <pt x="99" y="400" on="1"/>
        <pt x="99" y="426" on="0"/>
        <pt x="100" y="438" on="1"/>
        <pt x="40" y="438" on="1"/>
        <pt x="40" y="548" on="1"/>
        <pt x="108" y="548" on="1"/>
        <pt x="128" y="687" on="0"/>
        <pt x="255" y="819" on="0"/>
        <pt x="367" y="819" on="1"/>
        <pt x="491" y="819" on="0"/>
        <pt x="617" y="675" on="0"/>
        <pt x="623" y="526" on="1"/>
        <pt x="458" y="526" on="1"/>
        <pt x="453" y="597" on="0"/>
        <pt x="410" y="663" on="0"/>
        <pt x="368" y="663" on="1"/>
        <pt x="332" y="663" on="0"/>
        <pt x="286" y="607" on="0"/>
        <pt x="276" y="548" on="1"/>
        <pt x="399" y="548" on="1"/>
        <pt x="399" y="438" on="1"/>
        <pt x="266" y="438" on="1"/>
        <pt x="266" y="400" on="1"/>
        <pt x="266" y="371" on="1"/>
        <pt x="399" y="371" on="1"/>
        <pt x="399" y="260" on="1"/>
        <pt x="274" y="260" on="1"/>
        <pt x="284" y="197" on="0"/>
        <pt x="327" y="137" on="0"/>
        <pt x="362" y="137" on="1"/>
        <pt x="400" y="137" on="0"/>
        <pt x="439" y="196" on="0"/>
        <pt x="444" y="261" on="1"/>
        <pt x="609" y="261" on="1"/>
        <pt x="598" y="118" on="0"/>
        <pt x="477" y="-19" on="0"/>
        <pt x="361" y="-19" on="1"/>
      </contour>
    </TTGlyph>
    <TTGlyph name="F" xMin="112" yMin="0" xMax="601" yMax="800">
      <contour>
        <pt x="112" y="800" on="1"/>
        <pt x="601" y="800" on="1"/>
        <pt x="601" y="644" on="1"/>
        <pt x="274" y="644" on="1"/>
        <pt x="274" y="457" on="1"/>
        <pt x="558" y="457" on="1"/>
        <pt x="558" y="306" on="1"/>
        <pt x="274" y="306" on="1"/>
        <pt x="274" y="0" on="1"/>
        <pt x="112" y="0" on="1"/>
      </contour>
    </TTGlyph>
    <TTGlyph name="G" xMin="48" yMin="-19" xMax="612" yMax="819">
      <contour>
        <pt x="170" y="-19" on="0"/>
        <pt x="48" y="197" on="0"/>
        <pt x="48" y="400" on="1"/>
        <pt x="48" y="819" on="0"/>
        <pt x="341" y="819" on="1"/>
        <pt x="465" y="819" on="0"/>
        <pt x="601" y="676" on="0"/>
        <pt x="612" y="534" on="1"/>
        <pt x="452" y="534" on="1"/>
        <pt x="445" y="600" on="0"/>
        <pt x="391" y="663" on="0"/>
        <pt x="341" y="663" on="1"/>
        <pt x="273" y="663" on="0"/>
        <pt x="210" y="536" on="0"/>
        <pt x="210" y="400" on="1"/>
        <pt x="210" y="263" on="0"/>
        <pt x="274" y="133" on="0"/>
        <pt x="342" y="133" on="1"/>
        <pt x="385" y="133" on="0"/>
        <pt x="435" y="201" on="0"/>
        <pt x="445" y="273" on="1"/>
        <pt x="325" y="273" on="1"/>
        <pt x="325" y="418" on="1"/>
        <pt x="589" y="418" on="1"/>
        <pt x="589" y="0" on="1"/>
        <pt x="443" y="0" on="1"/>
        <pt x="443" y="82" on="1"/>
        <pt x="406" y="82" on="1"/>
        <pt x="380" y="-19" on="0"/>
        <pt x="281" y="-19" on="1"/>
      </contour>
    </TTGlyph>
    <TTGlyph name="H" xMin="63" yMin="0" xMax="587" yMax="800">
      <contour>
        <pt x="225" y="800" on="1"/>
        <pt x="225" y="475" on="1"/>
        <pt x="425" y="475" on="1"/>
        <pt x="425" y="800" on="1"/>
        <pt x="587" y="800" on="1"/>
        <pt x="587" y="0" on="1"/>
        <pt x="425" y="0" on="1"/>
        <pt x="425" y="322" on="1"/>
        <pt x="225" y="322" on="1"/>
        <pt x="225" y="0" on="1"/>
        <pt x="63" y="0" on="1"/>
        <pt x="63" y="800" on="1"/>
      </contour>
    </TTGlyph>
    <TTGlyph name="I" xMin="83" yMin="0" xMax="567" yMax="800">
      <contour>
        <pt x="83" y="156" on="1"/>
        <pt x="244" y="156" on="1"/>
        <pt x="244" y="644" on="1"/>
        <pt x="83" y="644" on="1"/>
        <pt x="83" y="800" on="1"/>
        <pt x="567" y="800" on="1"/>
        <pt x="567" y="644" on="1"/>
        <pt x="406" y="644" on="1"/>
        <pt x="406" y="156" on="1"/>
        <pt x="567" y="156" on="1"/>
        <pt x="567" y="0" on="1"/>
        <pt x="83" y="0" on="1"/>
      </contour>
    </TTGlyph>
    <TTGlyph name="J" xMin="65" yMin="-19" xMax="566" yMax="800">
      <contour>
        <pt x="196" y="-19" on="0"/>
        <pt x="65" y="119" on="0"/>
        <pt x="65" y="243" on="1"/>
        <pt x="65" y="350" on="1"/>
        <pt x="225" y="350" on="1"/>
        <pt x="225" y="243" on="1"/>
        <pt x="225" y="191" on="0"/>
        <pt x="271" y="137" on="0"/>
        <pt x="314" y="137" on="1"/>
        <pt x="357" y="137" on="0"/>
        <pt x="403" y="191" on="0"/>
        <pt x="403" y="243" on="1"/>
        <pt x="403" y="644" on="1"/>
        <pt x="122" y="644" on="1"/>
        <pt x="122" y="800" on="1"/>
        <pt x="566" y="800" on="1"/>
        <pt x="566" y="243" on="1"/>
        <pt x="566" y="119" on="0"/>
        <pt x="433" y="-19" on="0"/>
        <pt x="314" y="-19" on="1"/>
      </contour>
    </TTGlyph>
    <TTGlyph name="K" xMin="89" yMin="0" xMax="646" yMax="800">
      <contour>
        <pt x="252" y="800" on="1"/>
        <pt x="252" y="454" on="1"/>
        <pt x="460" y="800" on="1"/>
        <pt x="646" y="800" on="1"/>
        <pt x="391" y="390" on="1"/>
        <pt x="631" y="0" on="1"/>
        <pt x="440" y="0" on="1"/>
        <pt x="252" y="317" on="1"/>
        <pt x="252" y="0" on="1"/>
        <pt x="89" y="0" on="1"/>
        <pt x="89" y="800" on="1"/>
      </contour>
    </TTGlyph>
    <TTGlyph name="L" xMin="129" yMin="0" xMax="599" yMax="800">
      <contour>
        <pt x="129" y="800" on="1"/>
        <pt x="292" y="800" on="1"/>
        <pt x="292" y="156" on="1"/>
        <pt x="599" y="156" on="1"/>
        <pt x="599" y="0" on="1"/>
        <pt x="129" y="0" on="1"/>
      </contour>
    </TTGlyph>
    <TTGlyph name="M" xMin="49" yMin="0" xMax="601" yMax="800">
      <contour>
        <pt x="49" y="800" on="1"/>
        <pt x="268" y="800" on="1"/>
        <pt x="321" y="381" on="1"/>
        <pt x="337" y="381" on="1"/>
        <pt x="389" y="800" on="1"/>
        <pt x="601" y="800" on="1"/>
        <pt x="601" y="0" on="1"/>
        <pt x="462" y="0" on="1"/>
        <pt x="462" y="329" on="1"/>
        <pt x="475" y="656" on="1"/>
        <pt x="458" y="656" on="1"/>
        <pt x="405" y="257" on="1"/>
        <pt x="245" y="257" on="1"/>
        <pt x="192" y="656" on="1"/>
        <pt x="175" y="656" on="1"/>
        <pt x="188" y="329" on="1"/>
        <pt x="188" y="0" on="1"/>
        <pt x="49" y="0" on="1"/>
      </contour>
    </TTGlyph>
    <TTGlyph name="N" xMin="63" yMin="0" xMax="587" yMax="800">
      <contour>
        <pt x="63" y="800" on="1"/>
        <pt x="324" y="800" on="1"/>
        <pt x="437" y="129" on="1"/>
        <pt x="453" y="129" on="1"/>
        <pt x="441" y="446" on="1"/>
        <pt x="441" y="800" on="1"/>
        <pt x="587" y="800" on="1"/>
        <pt x="587" y="0" on="1"/>
        <pt x="326" y="0" on="1"/>
        <pt x="213" y="671" on="1"/>
        <pt x="197" y="671" on="1"/>
        <pt x="209" y="354" on="1"/>
        <pt x="209" y="0" on="1"/>
        <pt x="63" y="0" on="1"/>
      </contour>
    </TTGlyph>
    <TTGlyph name="O" xMin="35" yMin="-19" xMax="615" yMax="819">
      <contour>
        <pt x="35" y="-19" on="0"/>
        <pt x="35" y="400" on="1"/>
        <pt x="35" y="819" on="0"/>
        <pt x="325" y="819" on="1"/>
        <pt x="615" y="819" on="0"/>
        <pt x="615" y="400" on="1"/>
        <pt x="615" y="-19" on="0"/>
        <pt x="325" y="-19" on="1"/>
      </contour>
      <contour>
        <pt x="197" y="260" on="0"/>
        <pt x="259" y="129" on="0"/>
        <pt x="325" y="129" on="1"/>
        <pt x="391" y="129" on="0"/>
        <pt x="453" y="260" on="0"/>
        <pt x="453" y="400" on="1"/>
        <pt x="453" y="540" on="0"/>
        <pt x="391" y="671" on="0"/>
        <pt x="325" y="671" on="1"/>
        <pt x="259" y="671" on="0"/>
        <pt x="197" y="540" on="0"/>
        <pt x="197" y="400" on="1"/>
      </contour>
    </TTGlyph>
    <TTGlyph name="P" xMin="83" yMin="0" xMax="620" yMax="800">
      <contour>
        <pt x="83" y="800" on="1"/>
        <pt x="368" y="800" on="1"/>
        <pt x="444" y="800" on="0"/>
        <pt x="558" y="739" on="0"/>
        <pt x="620" y="626" on="0"/>
        <pt x="620" y="551" on="1"/>
        <pt x="620" y="478" on="0"/>
        <pt x="558" y="369" on="0"/>
        <pt x="444" y="309" on="0"/>
        <pt x="368" y="309" on="1"/>
        <pt x="245" y="309" on="1"/>
        <pt x="245" y="0" on="1"/>
        <pt x="83" y="0" on="1"/>
      </contour>
      <contour>
        <pt x="354" y="457" on="1"/>
        <pt x="403" y="457" on="0"/>
        <pt x="457" y="506" on="0"/>
        <pt x="457" y="551" on="1"/>
        <pt x="457" y="595" on="0"/>
        <pt x="403" y="644" on="0"/>
        <pt x="354" y="644" on="1"/>
        <pt x="245" y="644" on="1"/>
        <pt x="245" y="457" on="1"/>
      </contour>
    </TTGlyph>
    <TTGlyph name="Q" xMin="35" yMin="-219" xMax="615" yMax="819">
      <contour>
        <pt x="391" y="129" on="0"/>
        <pt x="453" y="260" on="0"/>
        <pt x="453" y="400" on="1"/>
        <pt x="453" y="540" on="0"/>
        <pt x="391" y="671" on="0"/>
        <pt x="325" y="671" on="1"/>
        <pt x="259" y="671" on="0"/>
        <pt x="197" y="540" on="0"/>
        <pt x="197" y="400" on="1"/>
        <pt x="197" y="260" on="0"/>
        <pt x="259" y="129" on="0"/>
        <pt x="325" y="129" on="1"/>
      </contour>
      <contour>
        <pt x="35" y="819" on="0"/>
        <pt x="325" y="819" on="1"/>
        <pt x="615" y="819" on="0"/>
        <pt x="615" y="400" on="1"/>
        <pt x="615" y="17" on="0"/>
        <pt x="373" y="-16" on="1"/>
        <pt x="583" y="-77" on="1"/>
        <pt x="583" y="-219" on="1"/>
        <pt x="305" y="-138" on="1"/>
        <pt x="305" y="-18" on="1"/>
        <pt x="35" y="-5" on="0"/>
        <pt x="35" y="400" on="1"/>
      </contour>
    </TTGlyph>
    <TTGlyph name="R" xMin="72" yMin="0" xMax="629" yMax="800">
      <contour>
        <pt x="72" y="800" on="1"/>
        <pt x="351" y="800" on="1"/>
        <pt x="429" y="800" on="0"/>
        <pt x="546" y="739" on="0"/>
        <pt x="610" y="627" on="0"/>
        <pt x="610" y="553" on="1"/>
        <pt x="610" y="472" on="0"/>
        <pt x="525" y="358" on="0"/>
        <pt x="449" y="335" on="1"/>
        <pt x="629" y="0" on="1"/>
        <pt x="449" y="0" on="1"/>
        <pt x="284" y="321" on="1"/>
        <pt x="235" y="321" on="1"/>
        <pt x="235" y="0" on="1"/>
        <pt x="72" y="0" on="1"/>
      </contour>
      <contour>
        <pt x="337" y="461" on="1"/>
        <pt x="390" y="461" on="0"/>
        <pt x="448" y="509" on="0"/>
        <pt x="448" y="553" on="1"/>
        <pt x="448" y="596" on="0"/>
        <pt x="390" y="644" on="0"/>
        <pt x="337" y="644" on="1"/>
        <pt x="235" y="644" on="1"/>
        <pt x="235" y="461" on="1"/>
      </contour>
    </TTGlyph>
    <TTGlyph name="S" xMin="61" yMin="-19" xMax="608" yMax="819">
      <contour>
        <pt x="228" y="176" on="0"/>
        <pt x="281" y="136" on="0"/>
        <pt x="331" y="136" on="1"/>
        <pt x="377" y="136" on="0"/>
        <pt x="428" y="185" on="0"/>
        <pt x="428" y="231" on="1"/>
        <pt x="428" y="267" on="0"/>
        <pt x="393" y="307" on="0"/>
        <pt x="356" y="313" on="1"/>
        <pt x="291" y="322" on="1"/>
        <pt x="180" y="341" on="0"/>
        <pt x="71" y="461" on="0"/>
        <pt x="71" y="566" on="1"/>
        <pt x="71" y="684" on="0"/>
        <pt x="212" y="819" on="0"/>
        <pt x="336" y="819" on="1"/>
        <pt x="460" y="819" on="0"/>
        <pt x="600" y="687" on="0"/>
        <pt x="608" y="563" on="1"/>
        <pt x="447" y="563" on="1"/>
        <pt x="437" y="664" on="0"/>
        <pt x="335" y="664" on="1"/>
        <pt x="286" y="664" on="0"/>
        <pt x="233" y="613" on="0"/>
        <pt x="233" y="567" on="1"/>
        <pt x="233" y="531" on="0"/>
        <pt x="268" y="492" on="0"/>
        <pt x="305" y="486" on="1"/>
        <pt x="370" y="476" on="1"/>
        <pt x="481" y="458" on="0"/>
        <pt x="590" y="337" on="0"/>
        <pt x="590" y="232" on="1"/>
        <pt x="590" y="115" on="0"/>
        <pt x="451" y="-19" on="0"/>
        <pt x="330" y="-19" on="1"/>
        <pt x="210" y="-19" on="0"/>
        <pt x="73" y="101" on="0"/>
        <pt x="61" y="217" on="1"/>
        <pt x="223" y="217" on="1"/>
      </contour>
    </TTGlyph>
    <TTGlyph name="T" xMin="50" yMin="0" xMax="600" yMax="800">
      <contour>
        <pt x="244" y="644" on="1"/>
        <pt x="50" y="644" on="1"/>
        <pt x="50" y="800" on="1"/>
        <pt x="600" y="800" on="1"/>
        <pt x="600" y="644" on="1"/>
        <pt x="406" y="644" on="1"/>
        <pt x="406" y="0" on="1"/>
        <pt x="244" y="0" on="1"/>
      </contour>
    </TTGlyph>
    <TTGlyph name="U" xMin="55" yMin="-19" xMax="595" yMax="800">
      <contour>
        <pt x="218" y="800" on="1"/>
        <pt x="218" y="264" on="1"/>
        <pt x="218" y="202" on="0"/>
        <pt x="273" y="137" on="0"/>
        <pt x="325" y="137" on="1"/>
        <pt x="377" y="137" on="0"/>
        <pt x="432" y="202" on="0"/>
        <pt x="432" y="264" on="1"/>
        <pt x="432" y="800" on="1"/>
        <pt x="595" y="800" on="1"/>
        <pt x="595" y="264" on="1"/>
        <pt x="595" y="129" on="0"/>
        <pt x="454" y="-19" on="0"/>
        <pt x="325" y="-19" on="1"/>
        <pt x="196" y="-19" on="0"/>
        <pt x="55" y="129" on="0"/>
        <pt x="55" y="264" on="1"/>
        <pt x="55" y="800" on="1"/>
      </contour>
    </TTGlyph>
    <TTGlyph name="V" xMin="30" yMin="0" xMax="620" yMax="800">
      <contour>
        <pt x="328" y="125" on="1"/>
        <pt x="456" y="800" on="1"/>
        <pt x="620" y="800" on="1"/>
        <pt x="457" y="0" on="1"/>
        <pt x="193" y="0" on="1"/>
        <pt x="30" y="800" on="1"/>
        <pt x="200" y="800" on="1"/>
      </contour>
    </TTGlyph>
    <TTGlyph name="W" xMin="15" yMin="0" xMax="635" yMax="800">
      <contour>
        <pt x="211" y="156" on="1"/>
        <pt x="250" y="613" on="1"/>
        <pt x="407" y="613" on="1"/>
        <pt x="444" y="156" on="1"/>
        <pt x="487" y="800" on="1"/>
        <pt x="635" y="800" on="1"/>
        <pt x="553" y="0" on="1"/>
        <pt x="367" y="0" on="1"/>
        <pt x="325" y="492" on="1"/>
        <pt x="282" y="0" on="1"/>
        <pt x="97" y="0" on="1"/>
        <pt x="15" y="800" on="1"/>
        <pt x="168" y="800" on="1"/>
      </contour>
    </TTGlyph>
    <TTGlyph name="X" xMin="33" yMin="0" xMax="617" yMax="800">
      <contour>
        <pt x="325" y="474" on="1"/>
        <pt x="445" y="800" on="1"/>
        <pt x="617" y="800" on="1"/>
        <pt x="455" y="389" on="1"/>
        <pt x="604" y="0" on="1"/>
        <pt x="425" y="0" on="1"/>
        <pt x="324" y="296" on="1"/>
        <pt x="219" y="0" on="1"/>
        <pt x="45" y="0" on="1"/>
        <pt x="195" y="389" on="1"/>
        <pt x="33" y="800" on="1"/>
        <pt x="211" y="800" on="1"/>
      </contour>
    </TTGlyph>
    <TTGlyph name="Y" xMin="21" yMin="0" xMax="631" yMax="800">
      <contour>
        <pt x="327" y="474" on="1"/>
        <pt x="460" y="800" on="1"/>
        <pt x="631" y="800" on="1"/>
        <pt x="407" y="306" on="1"/>
        <pt x="407" y="0" on="1"/>
        <pt x="245" y="0" on="1"/>
        <pt x="245" y="306" on="1"/>
        <pt x="21" y="800" on="1"/>
        <pt x="195" y="800" on="1"/>
      </contour>
    </TTGlyph>
    <TTGlyph name="Z" xMin="79" yMin="0" xMax="571" yMax="800">
      <contour>
        <pt x="79" y="264" on="1"/>
        <pt x="462" y="644" on="1"/>
        <pt x="79" y="644" on="1"/>
        <pt x="79" y="800" on="1"/>
        <pt x="571" y="800" on="1"/>
        <pt x="571" y="536" on="1"/>
        <pt x="188" y="156" on="1"/>
        <pt x="571" y="156" on="1"/>
        <pt x="571" y="0" on="1"/>
        <pt x="79" y="0" on="1"/>
      </contour>
    </TTGlyph>
    <TTGlyph name="_part.multiply" xMin="74" yMin="99" xMax="576" yMax="601">
      <contour>
        <pt x="74" y="512" on="1"/>
        <pt x="163" y="601" on="1"/>
        <pt x="576" y="188" on="1"/>
        <pt x="487" y="99" on="1"/>
      </contour>
    </TTGlyph>
    <TTGlyph name="a" xMin="49" yMin="-17" xMax="561" yMax="632">
      <contour>
        <pt x="57" y="507" on="0"/>
        <pt x="200" y="632" on="0"/>
        <pt x="316" y="632" on="1"/>
        <pt x="432" y="632" on="0"/>
        <pt x="561" y="517" on="0"/>
        <pt x="561" y="412" on="1"/>
        <pt x="561" y="0" on="1"/>
        <pt x="405" y="0" on="1"/>
        <pt x="405" y="76" on="1"/>
        <pt x="368" y="76" on="1"/>
        <pt x="358" y="31" on="0"/>
        <pt x="291" y="-17" on="0"/>
        <pt x="239" y="-17" on="1"/>
        <pt x="166" y="-17" on="0"/>
        <pt x="76" y="79" on="0"/>
        <pt x="76" y="156" on="1"/>
        <pt x="76" y="322" on="0"/>
        <pt x="261" y="355" on="1"/>
        <pt x="405" y="380" on="1"/>
        <pt x="405" y="396" on="1"/>
        <pt x="405" y="445" on="0"/>
        <pt x="360" y="494" on="0"/>
        <pt x="316" y="494" on="1"/>
        <pt x="268" y="494" on="0"/>
        <pt x="211" y="444" on="0"/>
        <pt x="206" y="397" on="1"/>
        <pt x="49" y="397" on="1"/>
      </contour>
      <contour>
        <pt x="231" y="140" on="0"/>
        <pt x="267" y="108" on="0"/>
        <pt x="298" y="108" on="1"/>
        <pt x="343" y="108" on="0"/>
        <pt x="405" y="175" on="0"/>
        <pt x="405" y="222" on="1"/>
        <pt x="405" y="257" on="1"/>
        <pt x="298" y="239" on="1"/>
        <pt x="266" y="233" on="0"/>
        <pt x="231" y="197" on="0"/>
        <pt x="231" y="169" on="1"/>
      </contour>
    </TTGlyph>
    <TTGlyph name="ampersand" xMin="53" yMin="-28" xMax="597" yMax="819">
      <contour>
        <pt x="53" y="281" on="0"/>
        <pt x="128" y="388" on="0"/>
        <pt x="195" y="439" on="1"/>
        <pt x="150" y="495" on="0"/>
        <pt x="108" y="587" on="0"/>
        <pt x="108" y="630" on="1"/>
        <pt x="108" y="717" on="0"/>
        <pt x="209" y="819" on="0"/>
        <pt x="296" y="819" on="1"/>
        <pt x="383" y="819" on="0"/>
        <pt x="484" y="717" on="0"/>
        <pt x="484" y="630" on="1"/>
        <pt x="484" y="564" on="0"/>
        <pt x="425" y="471" on="0"/>
        <pt x="371" y="426" on="1"/>
        <pt x="444" y="341" on="1"/>
        <pt x="449" y="377" on="0"/>
        <pt x="450" y="419" on="1"/>
        <pt x="582" y="419" on="1"/>
        <pt x="573" y="303" on="0"/>
        <pt x="549" y="219" on="1"/>
        <pt x="597" y="163" on="1"/>
        <pt x="597" y="-28" on="1"/>
        <pt x="493" y="92" on="1"/>
        <pt x="420" y="-19" on="0"/>
        <pt x="285" y="-19" on="1"/>
        <pt x="216" y="-19" on="0"/>
        <pt x="111" y="35" on="0"/>
        <pt x="53" y="134" on="0"/>
        <pt x="53" y="199" on="1"/>
      </contour>
      <contour>
        <pt x="212" y="181" on="0"/>
        <pt x="257" y="133" on="0"/>
        <pt x="294" y="133" on="1"/>
        <pt x="363" y="133" on="0"/>
        <pt x="402" y="198" on="1"/>
        <pt x="275" y="345" on="1"/>
        <pt x="212" y="287" on="0"/>
        <pt x="212" y="221" on="1"/>
      </contour>
      <contour>
        <pt x="252" y="585" on="0"/>
        <pt x="272" y="541" on="0"/>
        <pt x="294" y="516" on="1"/>
        <pt x="316" y="538" on="0"/>
        <pt x="339" y="583" on="0"/>
        <pt x="339" y="610" on="1"/>
        <pt x="339" y="636" on="0"/>
        <pt x="316" y="667" on="0"/>
        <pt x="296" y="667" on="1"/>
        <pt x="276" y="667" on="0"/>
        <pt x="252" y="637" on="0"/>
        <pt x="252" y="610" on="1"/>
      </contour>
    </TTGlyph>
    <TTGlyph name="approxequal" xMin="80" yMin="96" xMax="570" yMax="604">
      <component glyphName="asciitilde" x="0" y="129" flags="0x4"/>
      <component glyphName="asciitilde" x="0" y="-129" flags="0x4"/>
    </TTGlyph>
    <TTGlyph name="approxequal.case" xMin="80" yMin="146" xMax="570" yMax="654">
      <component glyphName="approxequal" x="0" y="50" flags="0x4"/>
    </TTGlyph>
    <TTGlyph name="asciicircum" xMin="73" yMin="516" xMax="579" yMax="819">
      <contour>
        <pt x="240" y="819" on="1"/>
        <pt x="411" y="819" on="1"/>
        <pt x="579" y="516" on="1"/>
        <pt x="425" y="516" on="1"/>
        <pt x="326" y="705" on="1"/>
        <pt x="227" y="516" on="1"/>
        <pt x="73" y="516" on="1"/>
      </contour>
    </TTGlyph>
    <TTGlyph name="asciitilde" xMin="80" yMin="225" xMax="570" yMax="475">
      <contour>
        <pt x="374" y="225" on="0"/>
        <pt x="316" y="266" on="0"/>
        <pt x="285" y="302" on="1"/>
        <pt x="267" y="324" on="0"/>
        <pt x="241" y="345" on="0"/>
        <pt x="227" y="345" on="1"/>
        <pt x="209" y="345" on="0"/>
        <pt x="186" y="310" on="0"/>
        <pt x="183" y="276" on="1"/>
        <pt x="80" y="276" on="1"/>
        <pt x="87" y="373" on="0"/>
        <pt x="165" y="475" on="0"/>
        <pt x="230" y="475" on="1"/>
        <pt x="276" y="475" on="0"/>
        <pt x="334" y="434" on="0"/>
        <pt x="365" y="398" on="1"/>
        <pt x="383" y="376" on="0"/>
        <pt x="409" y="355" on="0"/>
        <pt x="423" y="355" on="1"/>
        <pt x="441" y="355" on="0"/>
        <pt x="464" y="390" on="0"/>
        <pt x="467" y="424" on="1"/>
        <pt x="570" y="424" on="1"/>
        <pt x="563" y="327" on="0"/>
        <pt x="485" y="225" on="0"/>
        <pt x="420" y="225" on="1"/>
      </contour>
    </TTGlyph>
    <TTGlyph name="asciitilde.case" xMin="80" yMin="275" xMax="570" yMax="525">
      <component glyphName="asciitilde" x="0" y="50" flags="0x4"/>
    </TTGlyph>
    <TTGlyph name="asterisk" xMin="78" yMin="349" xMax="572" yMax="819">
      <contour>
        <pt x="402" y="819" on="1"/>
        <pt x="383" y="663" on="1"/>
        <pt x="525" y="730" on="1"/>
        <pt x="572" y="583" on="1"/>
        <pt x="418" y="554" on="1"/>
        <pt x="525" y="439" on="1"/>
        <pt x="401" y="349" on="1"/>
        <pt x="325" y="486" on="1"/>
        <pt x="249" y="349" on="1"/>
        <pt x="125" y="439" on="1"/>
        <pt x="232" y="554" on="1"/>
        <pt x="78" y="583" on="1"/>
        <pt x="125" y="730" on="1"/>
        <pt x="267" y="663" on="1"/>
        <pt x="248" y="819" on="1"/>
      </contour>
    </TTGlyph>
    <TTGlyph name="at" xMin="40" yMin="-138" xMax="602" yMax="819">
      <contour>
        <pt x="190" y="-138" on="0"/>
        <pt x="40" y="99" on="0"/>
        <pt x="40" y="340" on="1"/>
        <pt x="40" y="582" on="0"/>
        <pt x="192" y="819" on="0"/>
        <pt x="346" y="819" on="1"/>
        <pt x="475" y="819" on="0"/>
        <pt x="602" y="668" on="0"/>
        <pt x="602" y="515" on="1"/>
        <pt x="602" y="111" on="1"/>
        <pt x="488" y="111" on="1"/>
        <pt x="488" y="177" on="1"/>
        <pt x="451" y="177" on="1"/>
        <pt x="441" y="92" on="0"/>
        <pt x="361" y="92" on="1"/>
        <pt x="299" y="92" on="0"/>
        <pt x="237" y="215" on="0"/>
        <pt x="237" y="340" on="1"/>
        <pt x="237" y="465" on="0"/>
        <pt x="299" y="588" on="0"/>
        <pt x="361" y="588" on="1"/>
        <pt x="434" y="588" on="0"/>
        <pt x="446" y="503" on="1"/>
        <pt x="482" y="503" on="1"/>
        <pt x="482" y="515" on="1"/>
        <pt x="482" y="604" on="0"/>
        <pt x="415" y="691" on="0"/>
        <pt x="346" y="691" on="1"/>
        <pt x="254" y="691" on="0"/>
        <pt x="164" y="517" on="0"/>
        <pt x="164" y="340" on="1"/>
        <pt x="164" y="162" on="0"/>
        <pt x="255" y="-12" on="0"/>
        <pt x="347" y="-12" on="1"/>
        <pt x="417" y="-12" on="0"/>
        <pt x="451" y="9" on="1"/>
        <pt x="451" y="-112" on="1"/>
        <pt x="415" y="-138" on="0"/>
        <pt x="343" y="-138" on="1"/>
      </contour>
      <contour>
        <pt x="361" y="218" on="0"/>
        <pt x="423" y="218" on="1"/>
        <pt x="455" y="218" on="0"/>
        <pt x="486" y="278" on="0"/>
        <pt x="486" y="340" on="1"/>
        <pt x="486" y="402" on="0"/>
        <pt x="455" y="462" on="0"/>
        <pt x="423" y="462" on="1"/>
        <pt x="361" y="462" on="0"/>
        <pt x="361" y="340" on="1"/>
      </contour>
    </TTGlyph>
    <TTGlyph name="b" xMin="77" yMin="-16" xMax="609" yMax="848">
      <contour>
        <pt x="352" y="-16" on="0"/>
        <pt x="279" y="40" on="0"/>
        <pt x="269" y="89" on="1"/>
        <pt x="233" y="89" on="1"/>
        <pt x="233" y="0" on="1"/>
        <pt x="77" y="0" on="1"/>
        <pt x="77" y="848" on="1"/>
        <pt x="233" y="848" on="1"/>
        <pt x="233" y="524" on="1"/>
        <pt x="269" y="524" on="1"/>
        <pt x="279" y="573" on="0"/>
        <pt x="352" y="629" on="0"/>
        <pt x="405" y="629" on="1"/>
        <pt x="500" y="629" on="0"/>
        <pt x="609" y="458" on="0"/>
        <pt x="609" y="307" on="1"/>
        <pt x="609" y="155" on="0"/>
        <pt x="500" y="-16" on="0"/>
        <pt x="405" y="-16" on="1"/>
      </contour>
      <contour>
        <pt x="223" y="216" on="0"/>
        <pt x="284" y="120" on="0"/>
        <pt x="340" y="120" on="1"/>
        <pt x="396" y="120" on="0"/>
        <pt x="457" y="216" on="0"/>
        <pt x="457" y="307" on="1"/>
        <pt x="457" y="397" on="0"/>
        <pt x="396" y="493" on="0"/>
        <pt x="340" y="493" on="1"/>
        <pt x="284" y="493" on="0"/>
        <pt x="223" y="397" on="0"/>
        <pt x="223" y="307" on="1"/>
      </contour>
    </TTGlyph>
    <TTGlyph name="backslash" xMin="94" yMin="-170" xMax="556" yMax="848">
      <contour>
        <pt x="243" y="848" on="1"/>
        <pt x="556" y="-170" on="1"/>
        <pt x="407" y="-170" on="1"/>
        <pt x="94" y="848" on="1"/>
      </contour>
    </TTGlyph>
    <TTGlyph name="bar" xMin="260" yMin="-60" xMax="390" yMax="860">
      <contour>
        <pt x="390" y="-60" on="1"/>
        <pt x="260" y="-60" on="1"/>
        <pt x="260" y="860" on="1"/>
        <pt x="390" y="860" on="1"/>
      </contour>
    </TTGlyph>
    <TTGlyph name="braceleft" xMin="200" yMin="-201" xMax="535" yMax="961">
      <contour>
        <pt x="480" y="816" on="0"/>
        <pt x="423" y="754" on="0"/>
        <pt x="423" y="701" on="1"/>
        <pt x="423" y="680" on="0"/>
        <pt x="429" y="630" on="0"/>
        <pt x="430" y="621" on="1"/>
        <pt x="438" y="565" on="0"/>
        <pt x="438" y="532" on="1"/>
        <pt x="438" y="466" on="0"/>
        <pt x="372" y="392" on="0"/>
        <pt x="309" y="387" on="1"/>
        <pt x="309" y="373" on="1"/>
        <pt x="372" y="368" on="0"/>
        <pt x="438" y="294" on="0"/>
        <pt x="438" y="228" on="1"/>
        <pt x="438" y="195" on="0"/>
        <pt x="430" y="139" on="1"/>
        <pt x="429" y="130" on="0"/>
        <pt x="423" y="80" on="0"/>
        <pt x="423" y="59" on="1"/>
        <pt x="423" y="6" on="0"/>
        <pt x="480" y="-56" on="0"/>
        <pt x="535" y="-61" on="1"/>
        <pt x="535" y="-201" on="1"/>
        <pt x="410" y="-196" on="0"/>
        <pt x="270" y="-63" on="0"/>
        <pt x="270" y="50" on="1"/>
        <pt x="270" y="89" on="0"/>
        <pt x="279" y="136" on="1"/>
        <pt x="280" y="143" on="0"/>
        <pt x="286" y="184" on="0"/>
        <pt x="286" y="203" on="1"/>
        <pt x="286" y="255" on="0"/>
        <pt x="245" y="303" on="0"/>
        <pt x="200" y="302" on="1"/>
        <pt x="200" y="458" on="1"/>
        <pt x="245" y="457" on="0"/>
        <pt x="286" y="505" on="0"/>
        <pt x="286" y="557" on="1"/>
        <pt x="286" y="576" on="0"/>
        <pt x="280" y="617" on="0"/>
        <pt x="279" y="624" on="1"/>
        <pt x="270" y="671" on="0"/>
        <pt x="270" y="710" on="1"/>
        <pt x="270" y="823" on="0"/>
        <pt x="410" y="956" on="0"/>
        <pt x="535" y="961" on="1"/>
        <pt x="535" y="821" on="1"/>
      </contour>
    </TTGlyph>
    <TTGlyph name="braceright" xMin="115" yMin="-201" xMax="450" yMax="961">
      <contour>
        <pt x="240" y="956" on="0"/>
        <pt x="380" y="823" on="0"/>
        <pt x="380" y="710" on="1"/>
        <pt x="380" y="671" on="0"/>
        <pt x="371" y="624" on="1"/>
        <pt x="370" y="617" on="0"/>
        <pt x="364" y="576" on="0"/>
        <pt x="364" y="557" on="1"/>
        <pt x="364" y="505" on="0"/>
        <pt x="405" y="457" on="0"/>
        <pt x="450" y="458" on="1"/>
        <pt x="450" y="302" on="1"/>
        <pt x="405" y="303" on="0"/>
        <pt x="364" y="255" on="0"/>
        <pt x="364" y="203" on="1"/>
        <pt x="364" y="184" on="0"/>
        <pt x="370" y="143" on="0"/>
        <pt x="371" y="136" on="1"/>
        <pt x="380" y="89" on="0"/>
        <pt x="380" y="50" on="1"/>
        <pt x="380" y="-63" on="0"/>
        <pt x="240" y="-196" on="0"/>
        <pt x="115" y="-201" on="1"/>
        <pt x="115" y="-61" on="1"/>
        <pt x="170" y="-56" on="0"/>
        <pt x="227" y="6" on="0"/>
        <pt x="227" y="59" on="1"/>
        <pt x="227" y="80" on="0"/>
        <pt x="221" y="130" on="0"/>
        <pt x="220" y="139" on="1"/>
        <pt x="212" y="195" on="0"/>
        <pt x="212" y="228" on="1"/>
        <pt x="212" y="294" on="0"/>
        <pt x="278" y="368" on="0"/>
        <pt x="341" y="373" on="1"/>
        <pt x="341" y="387" on="1"/>
        <pt x="278" y="392" on="0"/>
        <pt x="212" y="466" on="0"/>
        <pt x="212" y="532" on="1"/>
        <pt x="212" y="565" on="0"/>
        <pt x="220" y="621" on="1"/>
        <pt x="221" y="630" on="0"/>
        <pt x="227" y="680" on="0"/>
        <pt x="227" y="701" on="1"/>
        <pt x="227" y="754" on="0"/>
        <pt x="170" y="816" on="0"/>
        <pt x="115" y="821" on="1"/>
        <pt x="115" y="961" on="1"/>
      </contour>
    </TTGlyph>
    <TTGlyph name="bracketleft" xMin="256" yMin="-183" xMax="535" yMax="943">
      <contour>
        <pt x="535" y="809" on="1"/>
        <pt x="402" y="809" on="1"/>
        <pt x="402" y="-49" on="1"/>
        <pt x="535" y="-49" on="1"/>
        <pt x="535" y="-183" on="1"/>
        <pt x="256" y="-183" on="1"/>
        <pt x="256" y="943" on="1"/>
        <pt x="535" y="943" on="1"/>
      </contour>
    </TTGlyph>
    <TTGlyph name="bracketright" xMin="115" yMin="-183" xMax="394" yMax="943">
      <contour>
        <pt x="394" y="943" on="1"/>
        <pt x="394" y="-183" on="1"/>
        <pt x="115" y="-183" on="1"/>
        <pt x="115" y="-49" on="1"/>
        <pt x="248" y="-49" on="1"/>
        <pt x="248" y="809" on="1"/>
        <pt x="115" y="809" on="1"/>
        <pt x="115" y="943" on="1"/>
      </contour>
    </TTGlyph>
    <TTGlyph name="bullet" xMin="109" yMin="134" xMax="541" yMax="566">
      <contour>
        <pt x="219" y="134" on="0"/>
        <pt x="109" y="244" on="0"/>
        <pt x="109" y="350" on="1"/>
        <pt x="109" y="456" on="0"/>
        <pt x="219" y="566" on="0"/>
        <pt x="325" y="566" on="1"/>
        <pt x="431" y="566" on="0"/>
        <pt x="541" y="456" on="0"/>
        <pt x="541" y="350" on="1"/>
        <pt x="541" y="244" on="0"/>
        <pt x="431" y="134" on="0"/>
        <pt x="325" y="134" on="1"/>
      </contour>
    </TTGlyph>
    <TTGlyph name="c" xMin="73" yMin="-19" xMax="597" yMax="632">
      <contour>
        <pt x="215" y="-19" on="0"/>
        <pt x="73" y="152" on="0"/>
        <pt x="73" y="304" on="1"/>
        <pt x="73" y="406" on="0"/>
        <pt x="139" y="554" on="0"/>
        <pt x="262" y="632" on="0"/>
        <pt x="346" y="632" on="1"/>
        <pt x="457" y="632" on="0"/>
        <pt x="591" y="488" on="0"/>
        <pt x="597" y="363" on="1"/>
        <pt x="453" y="363" on="1"/>
        <pt x="449" y="426" on="0"/>
        <pt x="392" y="494" on="0"/>
        <pt x="345" y="494" on="1"/>
        <pt x="286" y="494" on="0"/>
        <pt x="223" y="396" on="0"/>
        <pt x="223" y="304" on="1"/>
        <pt x="223" y="214" on="0"/>
        <pt x="284" y="119" on="0"/>
        <pt x="340" y="119" on="1"/>
        <pt x="384" y="119" on="0"/>
        <pt x="436" y="176" on="0"/>
        <pt x="442" y="230" on="1"/>
        <pt x="586" y="230" on="1"/>
        <pt x="578" y="114" on="0"/>
        <pt x="446" y="-19" on="0"/>
        <pt x="340" y="-19" on="1"/>
      </contour>
    </TTGlyph>
    <TTGlyph name="cent" xMin="73" yMin="-93" xMax="597" yMax="707">
      <contour>
        <pt x="405" y="707" on="1"/>
        <pt x="405" y="626" on="1"/>
        <pt x="491" y="608" on="0"/>
        <pt x="592" y="471" on="0"/>
        <pt x="597" y="363" on="1"/>
        <pt x="453" y="363" on="1"/>
        <pt x="449" y="426" on="0"/>
        <pt x="392" y="494" on="0"/>
        <pt x="345" y="494" on="1"/>
        <pt x="286" y="494" on="0"/>
        <pt x="223" y="396" on="0"/>
        <pt x="223" y="304" on="1"/>
        <pt x="223" y="214" on="0"/>
        <pt x="284" y="119" on="0"/>
        <pt x="340" y="119" on="1"/>
        <pt x="384" y="119" on="0"/>
        <pt x="436" y="176" on="0"/>
        <pt x="442" y="230" on="1"/>
        <pt x="586" y="230" on="1"/>
        <pt x="579" y="133" on="0"/>
        <pt x="484" y="7" on="0"/>
        <pt x="405" y="-12" on="1"/>
        <pt x="405" y="-93" on="1"/>
        <pt x="273" y="-93" on="1"/>
        <pt x="273" y="-12" on="1"/>
        <pt x="178" y="10" on="0"/>
        <pt x="73" y="175" on="0"/>
        <pt x="73" y="304" on="1"/>
        <pt x="73" y="434" on="0"/>
        <pt x="178" y="601" on="0"/>
        <pt x="273" y="624" on="1"/>
        <pt x="273" y="707" on="1"/>
      </contour>
    </TTGlyph>
    <TTGlyph name="cent.bold" xMin="73" yMin="-93" xMax="597" yMax="707">
      <contour>
        <pt x="287" y="-15" on="1"/>
        <pt x="185" y="3" on="0"/>
        <pt x="73" y="170" on="0"/>
        <pt x="73" y="304" on="1"/>
        <pt x="73" y="439" on="0"/>
        <pt x="185" y="607" on="0"/>
        <pt x="287" y="627" on="1"/>
        <pt x="287" y="707" on="1"/>
        <pt x="390" y="707" on="1"/>
        <pt x="390" y="629" on="1"/>
        <pt x="483" y="615" on="0"/>
        <pt x="592" y="475" on="0"/>
        <pt x="597" y="363" on="1"/>
        <pt x="453" y="363" on="1"/>
        <pt x="450" y="408" on="0"/>
        <pt x="417" y="470" on="0"/>
        <pt x="390" y="484" on="1"/>
        <pt x="390" y="132" on="1"/>
        <pt x="434" y="156" on="0"/>
        <pt x="442" y="230" on="1"/>
        <pt x="586" y="230" on="1"/>
        <pt x="579" y="128" on="0"/>
        <pt x="475" y="0" on="0"/>
        <pt x="390" y="-15" on="1"/>
        <pt x="390" y="-93" on="1"/>
        <pt x="287" y="-93" on="1"/>
      </contour>
      <contour>
        <pt x="223" y="239" on="0"/>
        <pt x="256" y="152" on="0"/>
        <pt x="287" y="133" on="1"/>
        <pt x="287" y="478" on="1"/>
        <pt x="256" y="459" on="0"/>
        <pt x="223" y="370" on="0"/>
        <pt x="223" y="304" on="1"/>
      </contour>
    </TTGlyph>
    <TTGlyph name="colon" xMin="210" yMin="-11" xMax="440" yMax="624">
      <component glyphName="period" x="0" y="0" flags="0x0"/>
      <component glyphName="period" x="0" y="383" flags="0x4"/>
    </TTGlyph>
    <TTGlyph name="colon.case" xMin="210" yMin="82" xMax="440" yMax="717">
      <component glyphName="colon" x="0" y="93" flags="0x4"/>
    </TTGlyph>
    <TTGlyph name="comma" xMin="199" yMin="-187" xMax="453" yMax="241">
      <contour>
        <pt x="269" y="-11" on="0"/>
        <pt x="210" y="53" on="0"/>
        <pt x="210" y="115" on="1"/>
        <pt x="210" y="177" on="0"/>
        <pt x="269" y="241" on="0"/>
        <pt x="325" y="241" on="1"/>
        <pt x="453" y="241" on="0"/>
        <pt x="453" y="83" on="1"/>
        <pt x="453" y="-71" on="0"/>
        <pt x="377" y="-187" on="1"/>
        <pt x="199" y="-187" on="1"/>
        <pt x="323" y="-109" on="0"/>
        <pt x="349" y="-9" on="1"/>
        <pt x="333" y="-11" on="0"/>
        <pt x="325" y="-11" on="1"/>
      </contour>
    </TTGlyph>
    <TTGlyph name="copyright" xMin="35" yMin="78" xMax="615" yMax="722">
      <contour>
        <pt x="239" y="78" on="0"/>
        <pt x="108" y="158" on="0"/>
        <pt x="35" y="304" on="0"/>
        <pt x="35" y="400" on="1"/>
        <pt x="35" y="496" on="0"/>
        <pt x="108" y="642" on="0"/>
        <pt x="239" y="722" on="0"/>
        <pt x="325" y="722" on="1"/>
        <pt x="411" y="722" on="0"/>
        <pt x="543" y="642" on="0"/>
        <pt x="615" y="496" on="0"/>
        <pt x="615" y="400" on="1"/>
        <pt x="615" y="304" on="0"/>
        <pt x="543" y="158" on="0"/>
        <pt x="411" y="78" on="0"/>
        <pt x="325" y="78" on="1"/>
      </contour>
      <contour>
        <pt x="133" y="295" on="0"/>
        <pt x="236" y="174" on="0"/>
        <pt x="325" y="174" on="1"/>
        <pt x="414" y="174" on="0"/>
        <pt x="517" y="295" on="0"/>
        <pt x="517" y="400" on="1"/>
        <pt x="517" y="505" on="0"/>
        <pt x="414" y="626" on="0"/>
        <pt x="325" y="626" on="1"/>
        <pt x="236" y="626" on="0"/>
        <pt x="133" y="505" on="0"/>
        <pt x="133" y="400" on="1"/>
      </contour>
      <contour>
        <pt x="179" y="482" on="0"/>
        <pt x="259" y="577" on="0"/>
        <pt x="329" y="577" on="1"/>
        <pt x="389" y="577" on="0"/>
        <pt x="465" y="500" on="0"/>
        <pt x="472" y="430" on="1"/>
        <pt x="375" y="430" on="1"/>
        <pt x="369" y="483" on="0"/>
        <pt x="327" y="483" on="1"/>
        <pt x="303" y="483" on="0"/>
        <pt x="277" y="440" on="0"/>
        <pt x="277" y="400" on="1"/>
        <pt x="277" y="361" on="0"/>
        <pt x="303" y="320" on="0"/>
        <pt x="327" y="320" on="1"/>
        <pt x="344" y="320" on="0"/>
        <pt x="364" y="342" on="0"/>
        <pt x="366" y="363" on="1"/>
        <pt x="464" y="363" on="1"/>
        <pt x="459" y="301" on="0"/>
        <pt x="384" y="226" on="0"/>
        <pt x="328" y="226" on="1"/>
        <pt x="261" y="226" on="0"/>
        <pt x="179" y="321" on="0"/>
        <pt x="179" y="400" on="1"/>
      </contour>
    </TTGlyph>
    <TTGlyph name="currency" xMin="52" yMin="77" xMax="598" yMax="623">
      <contour>
        <pt x="264" y="117" on="0"/>
        <pt x="213" y="145" on="1"/>
        <pt x="145" y="77" on="1"/>
        <pt x="52" y="170" on="1"/>
        <pt x="120" y="238" on="1"/>
        <pt x="92" y="289" on="0"/>
        <pt x="92" y="350" on="1"/>
        <pt x="92" y="411" on="0"/>
        <pt x="120" y="462" on="1"/>
        <pt x="52" y="530" on="1"/>
        <pt x="145" y="623" on="1"/>
        <pt x="213" y="555" on="1"/>
        <pt x="264" y="583" on="0"/>
        <pt x="325" y="583" on="1"/>
        <pt x="386" y="583" on="0"/>
        <pt x="437" y="555" on="1"/>
        <pt x="505" y="623" on="1"/>
        <pt x="598" y="530" on="1"/>
        <pt x="530" y="462" on="1"/>
        <pt x="558" y="411" on="0"/>
        <pt x="558" y="350" on="1"/>
        <pt x="558" y="289" on="0"/>
        <pt x="530" y="238" on="1"/>
        <pt x="598" y="170" on="1"/>
        <pt x="505" y="77" on="1"/>
        <pt x="437" y="145" on="1"/>
        <pt x="386" y="117" on="0"/>
        <pt x="325" y="117" on="1"/>
      </contour>
      <contour>
        <pt x="228" y="310" on="0"/>
        <pt x="285" y="253" on="0"/>
        <pt x="325" y="253" on="1"/>
        <pt x="366" y="253" on="0"/>
        <pt x="422" y="310" on="0"/>
        <pt x="422" y="350" on="1"/>
        <pt x="422" y="391" on="0"/>
        <pt x="366" y="447" on="0"/>
        <pt x="325" y="447" on="1"/>
        <pt x="285" y="447" on="0"/>
        <pt x="228" y="391" on="0"/>
        <pt x="228" y="350" on="1"/>
      </contour>
    </TTGlyph>
    <TTGlyph name="d" xMin="41" yMin="-16" xMax="573" yMax="848">
      <contour>
        <pt x="150" y="-16" on="0"/>
        <pt x="41" y="155" on="0"/>
        <pt x="41" y="307" on="1"/>
        <pt x="41" y="458" on="0"/>
        <pt x="150" y="629" on="0"/>
        <pt x="245" y="629" on="1"/>
        <pt x="298" y="629" on="0"/>
        <pt x="371" y="573" on="0"/>
        <pt x="381" y="524" on="1"/>
        <pt x="417" y="524" on="1"/>
        <pt x="417" y="848" on="1"/>
        <pt x="573" y="848" on="1"/>
        <pt x="573" y="0" on="1"/>
        <pt x="417" y="0" on="1"/>
        <pt x="417" y="89" on="1"/>
        <pt x="381" y="89" on="1"/>
        <pt x="371" y="40" on="0"/>
        <pt x="298" y="-16" on="0"/>
        <pt x="245" y="-16" on="1"/>
      </contour>
      <contour>
        <pt x="193" y="216" on="0"/>
        <pt x="254" y="120" on="0"/>
        <pt x="310" y="120" on="1"/>
        <pt x="366" y="120" on="0"/>
        <pt x="427" y="216" on="0"/>
        <pt x="427" y="307" on="1"/>
        <pt x="427" y="397" on="0"/>
        <pt x="366" y="493" on="0"/>
        <pt x="310" y="493" on="1"/>
        <pt x="254" y="493" on="0"/>
        <pt x="193" y="397" on="0"/>
        <pt x="193" y="307" on="1"/>
      </contour>
    </TTGlyph>
    <TTGlyph name="divide" xMin="59" yMin="53" xMax="591" yMax="648">
      <component glyphName="minus" x="0" y="0" flags="0x0"/>
      <component glyphName="uni0307" x="241" y="-224" flags="0x4"/>
      <component glyphName="uni0307" x="241" y="-639" flags="0x4"/>
    </TTGlyph>
    <TTGlyph name="divide.case" xMin="59" yMin="103" xMax="591" yMax="698">
      <component glyphName="divide" x="0" y="50" flags="0x4"/>
    </TTGlyph>
    <TTGlyph name="dollar" xMin="61" yMin="-100" xMax="608" yMax="900">
      <contour>
        <pt x="228" y="176" on="0"/>
        <pt x="281" y="136" on="0"/>
        <pt x="331" y="136" on="1"/>
        <pt x="377" y="136" on="0"/>
        <pt x="428" y="185" on="0"/>
        <pt x="428" y="231" on="1"/>
        <pt x="428" y="267" on="0"/>
        <pt x="393" y="307" on="0"/>
        <pt x="356" y="313" on="1"/>
        <pt x="291" y="322" on="1"/>
        <pt x="180" y="341" on="0"/>
        <pt x="71" y="461" on="0"/>
        <pt x="71" y="566" on="1"/>
        <pt x="71" y="666" on="0"/>
        <pt x="174" y="795" on="0"/>
        <pt x="267" y="813" on="1"/>
        <pt x="267" y="900" on="1"/>
        <pt x="400" y="900" on="1"/>
        <pt x="400" y="814" on="1"/>
        <pt x="495" y="798" on="0"/>
        <pt x="601" y="670" on="0"/>
        <pt x="608" y="563" on="1"/>
        <pt x="447" y="563" on="1"/>
        <pt x="437" y="664" on="0"/>
        <pt x="335" y="664" on="1"/>
        <pt x="286" y="664" on="0"/>
        <pt x="233" y="613" on="0"/>
        <pt x="233" y="567" on="1"/>
        <pt x="233" y="531" on="0"/>
        <pt x="268" y="492" on="0"/>
        <pt x="305" y="486" on="1"/>
        <pt x="370" y="476" on="1"/>
        <pt x="481" y="458" on="0"/>
        <pt x="590" y="337" on="0"/>
        <pt x="590" y="232" on="1"/>
        <pt x="590" y="133" on="0"/>
        <pt x="490" y="6" on="0"/>
        <pt x="400" y="-12" on="1"/>
        <pt x="400" y="-100" on="1"/>
        <pt x="267" y="-100" on="1"/>
        <pt x="267" y="-14" on="1"/>
        <pt x="176" y="0" on="0"/>
        <pt x="71" y="117" on="0"/>
        <pt x="61" y="217" on="1"/>
        <pt x="223" y="217" on="1"/>
      </contour>
    </TTGlyph>
    <TTGlyph name="dollar.bold" xMin="61" yMin="-100" xMax="608" yMax="900">
      <contour>
        <pt x="229" y="168" on="0"/>
        <pt x="267" y="148" on="1"/>
        <pt x="267" y="327" on="1"/>
        <pt x="168" y="349" on="0"/>
        <pt x="71" y="467" on="0"/>
        <pt x="71" y="566" on="1"/>
        <pt x="71" y="666" on="0"/>
        <pt x="174" y="795" on="0"/>
        <pt x="267" y="813" on="1"/>
        <pt x="267" y="900" on="1"/>
        <pt x="400" y="900" on="1"/>
        <pt x="400" y="814" on="1"/>
        <pt x="495" y="798" on="0"/>
        <pt x="601" y="670" on="0"/>
        <pt x="608" y="563" on="1"/>
        <pt x="447" y="563" on="1"/>
        <pt x="441" y="625" on="0"/>
        <pt x="400" y="649" on="1"/>
        <pt x="400" y="470" on="1"/>
        <pt x="496" y="448" on="0"/>
        <pt x="590" y="330" on="0"/>
        <pt x="590" y="232" on="1"/>
        <pt x="590" y="133" on="0"/>
        <pt x="490" y="6" on="0"/>
        <pt x="400" y="-12" on="1"/>
        <pt x="400" y="-100" on="1"/>
        <pt x="267" y="-100" on="1"/>
        <pt x="267" y="-14" on="1"/>
        <pt x="176" y="0" on="0"/>
        <pt x="71" y="117" on="0"/>
        <pt x="61" y="217" on="1"/>
        <pt x="223" y="217" on="1"/>
      </contour>
      <contour>
        <pt x="233" y="519" on="0"/>
        <pt x="267" y="498" on="1"/>
        <pt x="267" y="645" on="1"/>
        <pt x="233" y="620" on="0"/>
        <pt x="233" y="567" on="1"/>
      </contour>
      <contour>
        <pt x="428" y="184" on="0"/>
        <pt x="428" y="231" on="1"/>
        <pt x="428" y="277" on="0"/>
        <pt x="400" y="296" on="1"/>
        <pt x="400" y="158" on="1"/>
      </contour>
    </TTGlyph>
    <TTGlyph name="dotlessi" xMin="114" yMin="0" xMax="599" yMax="613">
      <contour>
        <pt x="435" y="613" on="1"/>
        <pt x="435" y="138" on="1"/>
        <pt x="599" y="138" on="1"/>
        <pt x="599" y="0" on="1"/>
        <pt x="114" y="0" on="1"/>
        <pt x="114" y="138" on="1"/>
        <pt x="279" y="138" on="1"/>
        <pt x="279" y="475" on="1"/>
        <pt x="114" y="475" on="1"/>
        <pt x="114" y="613" on="1"/>
      </contour>
    </TTGlyph>
    <TTGlyph name="e" xMin="70" yMin="-19" xMax="590" yMax="632">
      <contour>
        <pt x="70" y="461" on="0"/>
        <pt x="210" y="632" on="0"/>
        <pt x="333" y="632" on="1"/>
        <pt x="452" y="632" on="0"/>
        <pt x="578" y="467" on="0"/>
        <pt x="578" y="313" on="1"/>
        <pt x="578" y="276" on="0"/>
        <pt x="574" y="252" on="1"/>
        <pt x="221" y="252" on="1"/>
        <pt x="238" y="117" on="0"/>
        <pt x="337" y="117" on="1"/>
        <pt x="408" y="117" on="0"/>
        <pt x="441" y="191" on="1"/>
        <pt x="590" y="191" on="1"/>
        <pt x="564" y="88" on="0"/>
        <pt x="433" y="-19" on="0"/>
        <pt x="334" y="-19" on="1"/>
        <pt x="206" y="-19" on="0"/>
        <pt x="70" y="151" on="0"/>
        <pt x="70" y="310" on="1"/>
      </contour>
      <contour>
        <pt x="436" y="374" on="1"/>
        <pt x="420" y="496" on="0"/>
        <pt x="333" y="496" on="1"/>
        <pt x="288" y="496" on="0"/>
        <pt x="232" y="433" on="0"/>
        <pt x="223" y="374" on="1"/>
      </contour>
    </TTGlyph>
    <TTGlyph name="eight" xMin="38" yMin="-19" xMax="612" yMax="819">
      <contour>
        <pt x="381" y="473" on="0"/>
        <pt x="441" y="522" on="0"/>
        <pt x="441" y="568" on="1"/>
        <pt x="441" y="613" on="0"/>
        <pt x="380" y="663" on="0"/>
        <pt x="325" y="663" on="1"/>
        <pt x="270" y="663" on="0"/>
        <pt x="209" y="613" on="0"/>
        <pt x="209" y="568" on="1"/>
        <pt x="209" y="522" on="0"/>
        <pt x="269" y="473" on="0"/>
        <pt x="325" y="473" on="1"/>
      </contour>
      <contour>
        <pt x="38" y="279" on="0"/>
        <pt x="113" y="372" on="0"/>
        <pt x="179" y="382" on="1"/>
        <pt x="179" y="419" on="1"/>
        <pt x="114" y="428" on="0"/>
        <pt x="40" y="521" on="0"/>
        <pt x="40" y="593" on="1"/>
        <pt x="40" y="698" on="0"/>
        <pt x="192" y="819" on="0"/>
        <pt x="325" y="819" on="1"/>
        <pt x="458" y="819" on="0"/>
        <pt x="610" y="698" on="0"/>
        <pt x="610" y="593" on="1"/>
        <pt x="610" y="521" on="0"/>
        <pt x="536" y="428" on="0"/>
        <pt x="471" y="419" on="1"/>
        <pt x="471" y="382" on="1"/>
        <pt x="537" y="372" on="0"/>
        <pt x="612" y="279" on="0"/>
        <pt x="612" y="207" on="1"/>
        <pt x="612" y="102" on="0"/>
        <pt x="458" y="-19" on="0"/>
        <pt x="325" y="-19" on="1"/>
        <pt x="192" y="-19" on="0"/>
        <pt x="38" y="102" on="0"/>
        <pt x="38" y="207" on="1"/>
      </contour>
      <contour>
        <pt x="207" y="187" on="0"/>
        <pt x="269" y="137" on="0"/>
        <pt x="325" y="137" on="1"/>
        <pt x="381" y="137" on="0"/>
        <pt x="443" y="187" on="0"/>
        <pt x="443" y="233" on="1"/>
        <pt x="443" y="278" on="0"/>
        <pt x="381" y="328" on="0"/>
        <pt x="325" y="328" on="1"/>
        <pt x="269" y="328" on="0"/>
        <pt x="207" y="278" on="0"/>
        <pt x="207" y="233" on="1"/>
      </contour>
    </TTGlyph>
    <TTGlyph name="ellipsis" xMin="34" yMin="-11" xMax="616" yMax="241">
      <contour>
        <pt x="287" y="-11" on="0"/>
        <pt x="247" y="53" on="0"/>
        <pt x="247" y="115" on="1"/>
        <pt x="247" y="177" on="0"/>
        <pt x="287" y="241" on="0"/>
        <pt x="325" y="241" on="1"/>
        <pt x="363" y="241" on="0"/>
        <pt x="403" y="177" on="0"/>
        <pt x="403" y="115" on="1"/>
        <pt x="403" y="53" on="0"/>
        <pt x="363" y="-11" on="0"/>
        <pt x="325" y="-11" on="1"/>
      </contour>
      <contour>
        <pt x="34" y="177" on="0"/>
        <pt x="74" y="241" on="0"/>
        <pt x="112" y="241" on="1"/>
        <pt x="150" y="241" on="0"/>
        <pt x="190" y="177" on="0"/>
        <pt x="190" y="115" on="1"/>
        <pt x="190" y="53" on="0"/>
        <pt x="150" y="-11" on="0"/>
        <pt x="112" y="-11" on="1"/>
        <pt x="74" y="-11" on="0"/>
        <pt x="34" y="53" on="0"/>
        <pt x="34" y="115" on="1"/>
      </contour>
      <contour>
        <pt x="460" y="177" on="0"/>
        <pt x="500" y="241" on="0"/>
        <pt x="538" y="241" on="1"/>
        <pt x="576" y="241" on="0"/>
        <pt x="616" y="177" on="0"/>
        <pt x="616" y="115" on="1"/>
        <pt x="616" y="53" on="0"/>
        <pt x="576" y="-11" on="0"/>
        <pt x="538" y="-11" on="1"/>
        <pt x="500" y="-11" on="0"/>
        <pt x="460" y="53" on="0"/>
        <pt x="460" y="115" on="1"/>
      </contour>
    </TTGlyph>
    <TTGlyph name="emdash" xMin="22" yMin="284" xMax="628" yMax="416">
      <contour>
        <pt x="628" y="416" on="1"/>
        <pt x="628" y="284" on="1"/>
        <pt x="22" y="284" on="1"/>
        <pt x="22" y="416" on="1"/>
      </contour>
    </TTGlyph>
    <TTGlyph name="emdash.case" xMin="22" yMin="334" xMax="628" yMax="466">
      <component glyphName="emdash" x="0" y="50" flags="0x4"/>
    </TTGlyph>
    <TTGlyph name="endash" xMin="43" yMin="284" xMax="607" yMax="416">
      <contour>
        <pt x="607" y="416" on="1"/>
        <pt x="607" y="284" on="1"/>
        <pt x="43" y="284" on="1"/>
        <pt x="43" y="416" on="1"/>
      </contour>
    </TTGlyph>
    <TTGlyph name="endash.case" xMin="43" yMin="334" xMax="607" yMax="466">
      <component glyphName="endash" x="0" y="50" flags="0x4"/>
    </TTGlyph>
    <TTGlyph name="equal" xMin="90" yMin="147" xMax="560" yMax="553">
      <contour>
        <pt x="90" y="553" on="1"/>
        <pt x="560" y="553" on="1"/>
        <pt x="560" y="414" on="1"/>
        <pt x="90" y="414" on="1"/>
      </contour>
      <contour>
        <pt x="90" y="286" on="1"/>
        <pt x="560" y="286" on="1"/>
        <pt x="560" y="147" on="1"/>
        <pt x="90" y="147" on="1"/>
      </contour>
    </TTGlyph>
    <TTGlyph name="equal.case" xMin="90" yMin="197" xMax="560" yMax="603">
      <component glyphName="equal" x="0" y="50" flags="0x4"/>
    </TTGlyph>
    <TTGlyph name="exclam" xMin="216" yMin="-9" xMax="433" yMax="800">
      <contour>
        <pt x="406" y="800" on="1"/>
        <pt x="406" y="258" on="1"/>
        <pt x="244" y="258" on="1"/>
        <pt x="244" y="800" on="1"/>
      </contour>
      <contour>
        <pt x="216" y="148" on="0"/>
        <pt x="272" y="201" on="0"/>
        <pt x="325" y="201" on="1"/>
        <pt x="378" y="201" on="0"/>
        <pt x="433" y="148" on="0"/>
        <pt x="433" y="96" on="1"/>
        <pt x="433" y="45" on="0"/>
        <pt x="377" y="-9" on="0"/>
        <pt x="325" y="-9" on="1"/>
        <pt x="272" y="-9" on="0"/>
        <pt x="216" y="45" on="0"/>
        <pt x="216" y="96" on="1"/>
      </contour>
    </TTGlyph>
    <TTGlyph name="f" xMin="97" yMin="0" xMax="653" yMax="867">
      <contour>
        <pt x="220" y="0" on="1"/>
        <pt x="220" y="475" on="1"/>
        <pt x="97" y="475" on="1"/>
        <pt x="97" y="613" on="1"/>
        <pt x="220" y="613" on="1"/>
        <pt x="220" y="664" on="1"/>
        <pt x="220" y="762" on="0"/>
        <pt x="332" y="867" on="0"/>
        <pt x="436" y="867" on="1"/>
        <pt x="534" y="867" on="0"/>
        <pt x="646" y="769" on="0"/>
        <pt x="653" y="677" on="1"/>
        <pt x="501" y="677" on="1"/>
        <pt x="495" y="732" on="0"/>
        <pt x="437" y="732" on="1"/>
        <pt x="376" y="732" on="0"/>
        <pt x="376" y="664" on="1"/>
        <pt x="376" y="613" on="1"/>
        <pt x="580" y="613" on="1"/>
        <pt x="580" y="475" on="1"/>
        <pt x="376" y="475" on="1"/>
        <pt x="376" y="0" on="1"/>
      </contour>
    </TTGlyph>
    <TTGlyph name="five" xMin="51" yMin="-19" xMax="602" yMax="800">
      <contour>
        <pt x="585" y="800" on="1"/>
        <pt x="585" y="644" on="1"/>
        <pt x="241" y="644" on="1"/>
        <pt x="241" y="478" on="1"/>
        <pt x="278" y="478" on="1"/>
        <pt x="287" y="515" on="0"/>
        <pt x="346" y="554" on="0"/>
        <pt x="392" y="554" on="1"/>
        <pt x="493" y="554" on="0"/>
        <pt x="602" y="410" on="0"/>
        <pt x="602" y="277" on="1"/>
        <pt x="602" y="136" on="0"/>
        <pt x="461" y="-19" on="0"/>
        <pt x="332" y="-19" on="1"/>
        <pt x="206" y="-19" on="0"/>
        <pt x="59" y="123" on="0"/>
        <pt x="51" y="253" on="1"/>
        <pt x="225" y="253" on="1"/>
        <pt x="231" y="197" on="0"/>
        <pt x="286" y="137" on="0"/>
        <pt x="331" y="137" on="1"/>
        <pt x="380" y="137" on="0"/>
        <pt x="434" y="210" on="0"/>
        <pt x="434" y="277" on="1"/>
        <pt x="434" y="340" on="0"/>
        <pt x="381" y="408" on="0"/>
        <pt x="333" y="408" on="1"/>
        <pt x="298" y="408" on="0"/>
        <pt x="244" y="369" on="0"/>
        <pt x="231" y="333" on="1"/>
        <pt x="79" y="333" on="1"/>
        <pt x="78" y="800" on="1"/>
      </contour>
    </TTGlyph>
    <TTGlyph name="four" xMin="36" yMin="0" xMax="627" yMax="800">
      <contour>
        <pt x="517" y="360" on="1"/>
        <pt x="627" y="360" on="1"/>
        <pt x="627" y="204" on="1"/>
        <pt x="517" y="204" on="1"/>
        <pt x="517" y="0" on="1"/>
        <pt x="354" y="0" on="1"/>
        <pt x="354" y="204" on="1"/>
        <pt x="36" y="204" on="1"/>
        <pt x="36" y="413" on="1"/>
        <pt x="239" y="800" on="1"/>
        <pt x="517" y="800" on="1"/>
      </contour>
      <contour>
        <pt x="354" y="360" on="1"/>
        <pt x="354" y="691" on="1"/>
        <pt x="174" y="360" on="1"/>
      </contour>
    </TTGlyph>
    <TTGlyph name="g" xMin="51" yMin="-219" xMax="571" yMax="629">
      <contour>
        <pt x="571" y="-83" on="0"/>
        <pt x="433" y="-219" on="0"/>
        <pt x="312" y="-219" on="1"/>
        <pt x="200" y="-219" on="0"/>
        <pt x="61" y="-117" on="0"/>
        <pt x="51" y="-27" on="1"/>
        <pt x="219" y="-27" on="1"/>
        <pt x="225" y="-54" on="0"/>
        <pt x="273" y="-84" on="0"/>
        <pt x="312" y="-84" on="1"/>
        <pt x="362" y="-84" on="0"/>
        <pt x="415" y="-21" on="0"/>
        <pt x="415" y="37" on="1"/>
        <pt x="415" y="138" on="1"/>
        <pt x="378" y="138" on="1"/>
        <pt x="367" y="93" on="0"/>
        <pt x="301" y="43" on="0"/>
        <pt x="252" y="43" on="1"/>
        <pt x="159" y="43" on="0"/>
        <pt x="52" y="196" on="0"/>
        <pt x="52" y="332" on="1"/>
        <pt x="52" y="471" on="0"/>
        <pt x="159" y="629" on="0"/>
        <pt x="252" y="629" on="1"/>
        <pt x="301" y="629" on="0"/>
        <pt x="368" y="576" on="0"/>
        <pt x="379" y="528" on="1"/>
        <pt x="415" y="528" on="1"/>
        <pt x="415" y="613" on="1"/>
        <pt x="571" y="613" on="1"/>
        <pt x="571" y="37" on="1"/>
      </contour>
      <contour>
        <pt x="204" y="256" on="0"/>
        <pt x="261" y="173" on="0"/>
        <pt x="314" y="173" on="1"/>
        <pt x="367" y="173" on="0"/>
        <pt x="423" y="256" on="0"/>
        <pt x="423" y="333" on="1"/>
        <pt x="423" y="411" on="0"/>
        <pt x="367" y="493" on="0"/>
        <pt x="314" y="493" on="1"/>
        <pt x="261" y="493" on="0"/>
        <pt x="204" y="410" on="0"/>
        <pt x="204" y="333" on="1"/>
      </contour>
    </TTGlyph>
    <TTGlyph name="grave" xMin="135" yMin="527" xMax="514" yMax="848">
      <contour>
        <pt x="326" y="848" on="1"/>
        <pt x="514" y="527" on="1"/>
        <pt x="373" y="527" on="1"/>
        <pt x="135" y="848" on="1"/>
      </contour>
    </TTGlyph>
    <TTGlyph name="greater" xMin="83" yMin="27" xMax="567" yMax="673">
      <contour>
        <pt x="83" y="27" on="1"/>
        <pt x="83" y="177" on="1"/>
        <pt x="468" y="342" on="1"/>
        <pt x="468" y="358" on="1"/>
        <pt x="83" y="523" on="1"/>
        <pt x="83" y="673" on="1"/>
        <pt x="567" y="461" on="1"/>
        <pt x="567" y="239" on="1"/>
      </contour>
    </TTGlyph>
    <TTGlyph name="greater.case" xMin="83" yMin="77" xMax="567" yMax="723">
      <component glyphName="greater" x="0" y="50" flags="0x4"/>
    </TTGlyph>
    <TTGlyph name="guillemotleft" xMin="65" yMin="42" xMax="569" yMax="659">
      <contour>
        <pt x="65" y="250" on="1"/>
        <pt x="65" y="455" on="1"/>
        <pt x="316" y="659" on="1"/>
        <pt x="316" y="480" on="1"/>
        <pt x="153" y="353" on="1"/>
        <pt x="316" y="226" on="1"/>
        <pt x="316" y="42" on="1"/>
      </contour>
      <contour>
        <pt x="345" y="444" on="1"/>
        <pt x="569" y="628" on="1"/>
        <pt x="569" y="460" on="1"/>
        <pt x="431" y="352" on="1"/>
        <pt x="569" y="247" on="1"/>
        <pt x="569" y="73" on="1"/>
        <pt x="345" y="261" on="1"/>
      </contour>
    </TTGlyph>
    <TTGlyph name="guillemotright" xMin="81" yMin="42" xMax="585" yMax="659">
      <contour>
        <pt x="334" y="226" on="1"/>
        <pt x="497" y="353" on="1"/>
        <pt x="334" y="480" on="1"/>
        <pt x="334" y="659" on="1"/>
        <pt x="585" y="455" on="1"/>
        <pt x="585" y="250" on="1"/>
        <pt x="334" y="42" on="1"/>
      </contour>
      <contour>
        <pt x="81" y="247" on="1"/>
        <pt x="219" y="352" on="1"/>
        <pt x="81" y="460" on="1"/>
        <pt x="81" y="628" on="1"/>
        <pt x="305" y="444" on="1"/>
        <pt x="305" y="261" on="1"/>
        <pt x="81" y="73" on="1"/>
      </contour>
    </TTGlyph>
    <TTGlyph name="h" xMin="83" yMin="0" xMax="576" yMax="848">
      <contour>
        <pt x="239" y="848" on="1"/>
        <pt x="239" y="519" on="1"/>
        <pt x="276" y="519" on="1"/>
        <pt x="285" y="574" on="0"/>
        <pt x="355" y="632" on="0"/>
        <pt x="411" y="632" on="1"/>
        <pt x="489" y="632" on="0"/>
        <pt x="576" y="513" on="0"/>
        <pt x="576" y="407" on="1"/>
        <pt x="576" y="0" on="1"/>
        <pt x="420" y="0" on="1"/>
        <pt x="420" y="361" on="1"/>
        <pt x="420" y="484" on="0"/>
        <pt x="330" y="484" on="1"/>
        <pt x="239" y="484" on="0"/>
        <pt x="239" y="361" on="1"/>
        <pt x="239" y="0" on="1"/>
        <pt x="83" y="0" on="1"/>
        <pt x="83" y="848" on="1"/>
      </contour>
    </TTGlyph>
    <TTGlyph name="hyphen" xMin="59" yMin="280" xMax="591" yMax="420">
      <component glyphName="minus" x="0" y="0" flags="0x0"/>
    </TTGlyph>
    <TTGlyph name="hyphen.case" xMin="59" yMin="330" xMax="591" yMax="470">
      <component glyphName="minus.case" x="0" y="0" flags="0x0"/>
    </TTGlyph>
    <TTGlyph name="i" xMin="114" yMin="0" xMax="599" yMax="872">
      <component glyphName="dotlessi" x="0" y="0" flags="0x0"/>
      <component glyphName="uni0307" x="273" y="0" flags="0x0"/>
    </TTGlyph>
    <TTGlyph name="j" xMin="59" yMin="-219" xMax="519" yMax="872">
      <component glyphName="uni0237" x="0" y="0" flags="0x0"/>
      <component glyphName="uni0307" x="331" y="0" flags="0x0"/>
    </TTGlyph>
    <TTGlyph name="k" xMin="98" yMin="0" xMax="634" yMax="848">
      <contour>
        <pt x="254" y="848" on="1"/>
        <pt x="254" y="340" on="1"/>
        <pt x="456" y="613" on="1"/>
        <pt x="634" y="613" on="1"/>
        <pt x="395" y="302" on="1"/>
        <pt x="625" y="0" on="1"/>
        <pt x="438" y="0" on="1"/>
        <pt x="254" y="253" on="1"/>
        <pt x="254" y="0" on="1"/>
        <pt x="98" y="0" on="1"/>
        <pt x="98" y="848" on="1"/>
      </contour>
    </TTGlyph>
    <TTGlyph name="l" xMin="98" yMin="0" xMax="583" yMax="848">
      <contour>
        <pt x="419" y="848" on="1"/>
        <pt x="419" y="138" on="1"/>
        <pt x="583" y="138" on="1"/>
        <pt x="583" y="0" on="1"/>
        <pt x="98" y="0" on="1"/>
        <pt x="98" y="138" on="1"/>
        <pt x="263" y="138" on="1"/>
        <pt x="263" y="710" on="1"/>
        <pt x="98" y="710" on="1"/>
        <pt x="98" y="848" on="1"/>
      </contour>
    </TTGlyph>
    <TTGlyph name="less" xMin="83" yMin="27" xMax="567" yMax="673">
      <contour>
        <pt x="567" y="673" on="1"/>
        <pt x="567" y="523" on="1"/>
        <pt x="182" y="358" on="1"/>
        <pt x="182" y="342" on="1"/>
        <pt x="567" y="177" on="1"/>
        <pt x="567" y="27" on="1"/>
        <pt x="83" y="239" on="1"/>
        <pt x="83" y="461" on="1"/>
      </contour>
    </TTGlyph>
    <TTGlyph name="less.case" xMin="83" yMin="77" xMax="567" yMax="723">
      <contour>
        <pt x="567" y="723" on="1"/>
        <pt x="567" y="573" on="1"/>
        <pt x="182" y="408" on="1"/>
        <pt x="182" y="392" on="1"/>
        <pt x="567" y="227" on="1"/>
        <pt x="567" y="77" on="1"/>
        <pt x="83" y="289" on="1"/>
        <pt x="83" y="511" on="1"/>
      </contour>
    </TTGlyph>
    <TTGlyph name="m" xMin="46" yMin="0" xMax="608" yMax="632">
      <contour>
        <pt x="190" y="613" on="1"/>
        <pt x="190" y="527" on="1"/>
        <pt x="224" y="527" on="1"/>
        <pt x="233" y="632" on="0"/>
        <pt x="308" y="632" on="1"/>
        <pt x="381" y="632" on="0"/>
        <pt x="396" y="527" on="1"/>
        <pt x="426" y="527" on="1"/>
        <pt x="435" y="632" on="0"/>
        <pt x="514" y="632" on="1"/>
        <pt x="608" y="632" on="0"/>
        <pt x="608" y="475" on="1"/>
        <pt x="608" y="0" on="1"/>
        <pt x="464" y="0" on="1"/>
        <pt x="464" y="423" on="1"/>
        <pt x="464" y="446" on="0"/>
        <pt x="448" y="469" on="0"/>
        <pt x="431" y="469" on="1"/>
        <pt x="399" y="469" on="0"/>
        <pt x="399" y="423" on="1"/>
        <pt x="399" y="0" on="1"/>
        <pt x="255" y="0" on="1"/>
        <pt x="255" y="423" on="1"/>
        <pt x="255" y="446" on="0"/>
        <pt x="239" y="469" on="0"/>
        <pt x="222" y="469" on="1"/>
        <pt x="190" y="469" on="0"/>
        <pt x="190" y="423" on="1"/>
        <pt x="190" y="0" on="1"/>
        <pt x="46" y="0" on="1"/>
        <pt x="46" y="613" on="1"/>
      </contour>
    </TTGlyph>
    <TTGlyph name="minus" xMin="59" yMin="280" xMax="591" yMax="420">
      <contour>
        <pt x="59" y="420" on="1"/>
        <pt x="591" y="420" on="1"/>
        <pt x="591" y="280" on="1"/>
        <pt x="59" y="280" on="1"/>
      </contour>
    </TTGlyph>
    <TTGlyph name="minus.case" xMin="59" yMin="330" xMax="591" yMax="470">
      <component glyphName="minus" x="0" y="50" flags="0x4"/>
    </TTGlyph>
    <TTGlyph name="multiply" xMin="74" yMin="99" xMax="576" yMax="601">
      <contour>
        <pt x="325" y="261" on="1"/>
        <pt x="163" y="99" on="1"/>
        <pt x="74" y="188" on="1"/>
        <pt x="236" y="350" on="1"/>
        <pt x="74" y="512" on="1"/>
        <pt x="163" y="601" on="1"/>
        <pt x="325" y="439" on="1"/>
        <pt x="487" y="601" on="1"/>
        <pt x="576" y="512" on="1"/>
        <pt x="414" y="350" on="1"/>
        <pt x="576" y="188" on="1"/>
        <pt x="487" y="99" on="1"/>
      </contour>
    </TTGlyph>
    <TTGlyph name="multiply.case" xMin="74" yMin="149" xMax="576" yMax="651">
      <component glyphName="multiply" x="0" y="50" flags="0x4"/>
    </TTGlyph>
    <TTGlyph name="n" xMin="83" yMin="0" xMax="576" yMax="632">
      <contour>
        <pt x="239" y="613" on="1"/>
        <pt x="239" y="519" on="1"/>
        <pt x="275" y="519" on="1"/>
        <pt x="285" y="574" on="0"/>
        <pt x="355" y="632" on="0"/>
        <pt x="411" y="632" on="1"/>
        <pt x="489" y="632" on="0"/>
        <pt x="576" y="513" on="0"/>
        <pt x="576" y="407" on="1"/>
        <pt x="576" y="0" on="1"/>
        <pt x="420" y="0" on="1"/>
        <pt x="420" y="361" on="1"/>
        <pt x="420" y="484" on="0"/>
        <pt x="329" y="484" on="1"/>
        <pt x="283" y="484" on="0"/>
        <pt x="239" y="423" on="0"/>
        <pt x="239" y="361" on="1"/>
        <pt x="239" y="0" on="1"/>
        <pt x="83" y="0" on="1"/>
        <pt x="83" y="613" on="1"/>
      </contour>
    </TTGlyph>
    <TTGlyph name="nine" xMin="47" yMin="0" xMax="603" yMax="819">
      <contour>
        <pt x="411" y="819" on="0"/>
        <pt x="536" y="749" on="0"/>
        <pt x="603" y="619" on="0"/>
        <pt x="603" y="531" on="1"/>
        <pt x="603" y="414" on="0"/>
        <pt x="534" y="300" on="1"/>
        <pt x="351" y="0" on="1"/>
        <pt x="164" y="0" on="1"/>
        <pt x="345" y="288" on="1"/>
        <pt x="317" y="306" on="1"/>
        <pt x="307" y="296" on="0"/>
        <pt x="269" y="284" on="0"/>
        <pt x="246" y="284" on="1"/>
        <pt x="190" y="284" on="0"/>
        <pt x="99" y="349" on="0"/>
        <pt x="47" y="461" on="0"/>
        <pt x="47" y="531" on="1"/>
        <pt x="47" y="619" on="0"/>
        <pt x="116" y="749" on="0"/>
        <pt x="243" y="819" on="0"/>
        <pt x="328" y="819" on="1"/>
      </contour>
      <contour>
        <pt x="216" y="469" on="0"/>
        <pt x="275" y="396" on="0"/>
        <pt x="325" y="396" on="1"/>
        <pt x="375" y="396" on="0"/>
        <pt x="434" y="469" on="0"/>
        <pt x="434" y="531" on="1"/>
        <pt x="434" y="593" on="0"/>
        <pt x="375" y="665" on="0"/>
        <pt x="325" y="665" on="1"/>
        <pt x="275" y="665" on="0"/>
        <pt x="216" y="593" on="0"/>
        <pt x="216" y="531" on="1"/>
      </contour>
    </TTGlyph>
    <TTGlyph name="notequal" xMin="90" yMin="10" xMax="560" yMax="690">
      <contour>
        <pt x="90" y="553" on="1"/>
        <pt x="346" y="553" on="1"/>
        <pt x="405" y="690" on="1"/>
        <pt x="537" y="690" on="1"/>
        <pt x="478" y="553" on="1"/>
        <pt x="560" y="553" on="1"/>
        <pt x="560" y="414" on="1"/>
        <pt x="418" y="414" on="1"/>
        <pt x="364" y="286" on="1"/>
        <pt x="560" y="286" on="1"/>
        <pt x="560" y="147" on="1"/>
        <pt x="304" y="147" on="1"/>
        <pt x="245" y="10" on="1"/>
        <pt x="113" y="10" on="1"/>
        <pt x="172" y="147" on="1"/>
        <pt x="90" y="147" on="1"/>
        <pt x="90" y="286" on="1"/>
        <pt x="232" y="286" on="1"/>
        <pt x="286" y="414" on="1"/>
        <pt x="90" y="414" on="1"/>
      </contour>
    </TTGlyph>
    <TTGlyph name="notequal.case" xMin="90" yMin="60" xMax="560" yMax="740">
      <component glyphName="notequal" x="0" y="50" flags="0x4"/>
    </TTGlyph>
    <TTGlyph name="numbersign" xMin="33" yMin="0" xMax="617" yMax="800">
      <contour>
        <pt x="323" y="621" on="1"/>
        <pt x="414" y="621" on="1"/>
        <pt x="449" y="800" on="1"/>
        <pt x="576" y="800" on="1"/>
        <pt x="541" y="621" on="1"/>
        <pt x="617" y="621" on="1"/>
        <pt x="617" y="483" on="1"/>
        <pt x="514" y="483" on="1"/>
        <pt x="481" y="317" on="1"/>
        <pt x="563" y="317" on="1"/>
        <pt x="563" y="179" on="1"/>
        <pt x="454" y="179" on="1"/>
        <pt x="419" y="0" on="1"/>
        <pt x="292" y="0" on="1"/>
        <pt x="327" y="179" on="1"/>
        <pt x="236" y="179" on="1"/>
        <pt x="201" y="0" on="1"/>
        <pt x="74" y="0" on="1"/>
        <pt x="109" y="179" on="1"/>
        <pt x="33" y="179" on="1"/>
        <pt x="33" y="317" on="1"/>
        <pt x="136" y="317" on="1"/>
        <pt x="169" y="483" on="1"/>
        <pt x="87" y="483" on="1"/>
        <pt x="87" y="621" on="1"/>
        <pt x="196" y="621" on="1"/>
        <pt x="231" y="800" on="1"/>
        <pt x="358" y="800" on="1"/>
      </contour>
      <contour>
        <pt x="354" y="317" on="1"/>
        <pt x="387" y="483" on="1"/>
        <pt x="296" y="483" on="1"/>
        <pt x="263" y="317" on="1"/>
      </contour>
    </TTGlyph>
    <TTGlyph name="o" xMin="56" yMin="-19" xMax="594" yMax="632">
      <contour>
        <pt x="242" y="-19" on="0"/>
        <pt x="120" y="59" on="0"/>
        <pt x="56" y="206" on="0"/>
        <pt x="56" y="307" on="1"/>
        <pt x="56" y="408" on="0"/>
        <pt x="120" y="554" on="0"/>
        <pt x="242" y="632" on="0"/>
        <pt x="325" y="632" on="1"/>
        <pt x="408" y="632" on="0"/>
        <pt x="530" y="554" on="0"/>
        <pt x="594" y="408" on="0"/>
        <pt x="594" y="307" on="1"/>
        <pt x="594" y="206" on="0"/>
        <pt x="530" y="59" on="0"/>
        <pt x="408" y="-19" on="0"/>
        <pt x="325" y="-19" on="1"/>
      </contour>
      <contour>
        <pt x="206" y="216" on="0"/>
        <pt x="267" y="119" on="0"/>
        <pt x="325" y="119" on="1"/>
        <pt x="383" y="119" on="0"/>
        <pt x="444" y="216" on="0"/>
        <pt x="444" y="307" on="1"/>
        <pt x="444" y="398" on="0"/>
        <pt x="383" y="494" on="0"/>
        <pt x="325" y="494" on="1"/>
        <pt x="267" y="494" on="0"/>
        <pt x="206" y="398" on="0"/>
        <pt x="206" y="307" on="1"/>
      </contour>
    </TTGlyph>
    <TTGlyph name="one" xMin="73" yMin="0" xMax="624" yMax="800">
      <contour>
        <pt x="439" y="146" on="1"/>
        <pt x="624" y="146" on="1"/>
        <pt x="624" y="0" on="1"/>
        <pt x="73" y="0" on="1"/>
        <pt x="73" y="146" on="1"/>
        <pt x="276" y="146" on="1"/>
        <pt x="276" y="652" on="1"/>
        <pt x="73" y="510" on="1"/>
        <pt x="73" y="698" on="1"/>
        <pt x="234" y="800" on="1"/>
        <pt x="439" y="800" on="1"/>
      </contour>
    </TTGlyph>
    <TTGlyph name="p" xMin="77" yMin="-200" xMax="609" yMax="629">
      <contour>
        <pt x="500" y="629" on="0"/>
        <pt x="609" y="458" on="0"/>
        <pt x="609" y="307" on="1"/>
        <pt x="609" y="155" on="0"/>
        <pt x="500" y="-16" on="0"/>
        <pt x="405" y="-16" on="1"/>
        <pt x="352" y="-16" on="0"/>
        <pt x="279" y="40" on="0"/>
        <pt x="269" y="89" on="1"/>
        <pt x="233" y="89" on="1"/>
        <pt x="233" y="-200" on="1"/>
        <pt x="77" y="-200" on="1"/>
        <pt x="77" y="613" on="1"/>
        <pt x="233" y="613" on="1"/>
        <pt x="233" y="524" on="1"/>
        <pt x="269" y="524" on="1"/>
        <pt x="279" y="573" on="0"/>
        <pt x="352" y="629" on="0"/>
        <pt x="405" y="629" on="1"/>
      </contour>
      <contour>
        <pt x="223" y="216" on="0"/>
        <pt x="284" y="120" on="0"/>
        <pt x="340" y="120" on="1"/>
        <pt x="396" y="120" on="0"/>
        <pt x="457" y="216" on="0"/>
        <pt x="457" y="307" on="1"/>
        <pt x="457" y="397" on="0"/>
        <pt x="396" y="493" on="0"/>
        <pt x="340" y="493" on="1"/>
        <pt x="284" y="493" on="0"/>
        <pt x="223" y="397" on="0"/>
        <pt x="223" y="307" on="1"/>
      </contour>
    </TTGlyph>
    <TTGlyph name="parenleft" xMin="200" yMin="-199" xMax="548" yMax="959">
      <contour>
        <pt x="454" y="766" on="0"/>
        <pt x="356" y="541" on="0"/>
        <pt x="356" y="380" on="1"/>
        <pt x="356" y="219" on="0"/>
        <pt x="454" y="-6" on="0"/>
        <pt x="548" y="-60" on="1"/>
        <pt x="548" y="-199" on="1"/>
        <pt x="384" y="-127" on="0"/>
        <pt x="200" y="179" on="0"/>
        <pt x="200" y="380" on="1"/>
        <pt x="200" y="581" on="0"/>
        <pt x="384" y="887" on="0"/>
        <pt x="548" y="959" on="1"/>
        <pt x="548" y="820" on="1"/>
      </contour>
    </TTGlyph>
    <TTGlyph name="parenright" xMin="102" yMin="-199" xMax="450" yMax="959">
      <contour>
        <pt x="266" y="887" on="0"/>
        <pt x="450" y="581" on="0"/>
        <pt x="450" y="380" on="1"/>
        <pt x="450" y="179" on="0"/>
        <pt x="266" y="-127" on="0"/>
        <pt x="102" y="-199" on="1"/>
        <pt x="102" y="-60" on="1"/>
        <pt x="196" y="-6" on="0"/>
        <pt x="294" y="219" on="0"/>
        <pt x="294" y="380" on="1"/>
        <pt x="294" y="541" on="0"/>
        <pt x="196" y="766" on="0"/>
        <pt x="102" y="820" on="1"/>
        <pt x="102" y="959" on="1"/>
      </contour>
    </TTGlyph>
    <TTGlyph name="percent" xMin="29" yMin="-19" xMax="621" yMax="819">
      <contour>
        <pt x="29" y="266" on="1"/>
        <pt x="621" y="652" on="1"/>
        <pt x="621" y="534" on="1"/>
        <pt x="29" y="148" on="1"/>
      </contour>
      <contour>
        <pt x="35" y="726" on="0"/>
        <pt x="119" y="819" on="0"/>
        <pt x="193" y="819" on="1"/>
        <pt x="268" y="819" on="0"/>
        <pt x="352" y="727" on="0"/>
        <pt x="352" y="644" on="1"/>
        <pt x="352" y="562" on="0"/>
        <pt x="268" y="470" on="0"/>
        <pt x="193" y="470" on="1"/>
        <pt x="119" y="470" on="0"/>
        <pt x="35" y="562" on="0"/>
        <pt x="35" y="644" on="1"/>
      </contour>
      <contour>
        <pt x="159" y="591" on="0"/>
        <pt x="193" y="591" on="1"/>
        <pt x="228" y="591" on="0"/>
        <pt x="228" y="644" on="1"/>
        <pt x="228" y="697" on="0"/>
        <pt x="193" y="697" on="1"/>
        <pt x="159" y="697" on="0"/>
        <pt x="159" y="644" on="1"/>
      </contour>
      <contour>
        <pt x="298" y="238" on="0"/>
        <pt x="382" y="330" on="0"/>
        <pt x="457" y="330" on="1"/>
        <pt x="531" y="330" on="0"/>
        <pt x="615" y="238" on="0"/>
        <pt x="615" y="156" on="1"/>
        <pt x="615" y="74" on="0"/>
        <pt x="531" y="-19" on="0"/>
        <pt x="457" y="-19" on="1"/>
        <pt x="382" y="-19" on="0"/>
        <pt x="298" y="73" on="0"/>
        <pt x="298" y="156" on="1"/>
      </contour>
      <contour>
        <pt x="422" y="103" on="0"/>
        <pt x="457" y="103" on="1"/>
        <pt x="491" y="103" on="0"/>
        <pt x="491" y="156" on="1"/>
        <pt x="491" y="209" on="0"/>
        <pt x="457" y="209" on="1"/>
        <pt x="422" y="209" on="0"/>
        <pt x="422" y="156" on="1"/>
      </contour>
    </TTGlyph>
    <TTGlyph name="percent.cv01" xMin="35" yMin="-19" xMax="615" yMax="819">
      <contour>
        <pt x="379" y="-19" on="0"/>
        <pt x="298" y="88" on="0"/>
        <pt x="298" y="192" on="1"/>
        <pt x="298" y="295" on="0"/>
        <pt x="379" y="400" on="0"/>
        <pt x="457" y="400" on="1"/>
        <pt x="535" y="400" on="0"/>
        <pt x="615" y="295" on="0"/>
        <pt x="615" y="192" on="1"/>
        <pt x="615" y="88" on="0"/>
        <pt x="535" y="-19" on="0"/>
        <pt x="457" y="-19" on="1"/>
      </contour>
      <contour>
        <pt x="35" y="712" on="0"/>
        <pt x="115" y="819" on="0"/>
        <pt x="193" y="819" on="1"/>
        <pt x="271" y="819" on="0"/>
        <pt x="352" y="712" on="0"/>
        <pt x="352" y="608" on="1"/>
        <pt x="352" y="505" on="0"/>
        <pt x="271" y="400" on="0"/>
        <pt x="193" y="400" on="1"/>
        <pt x="115" y="400" on="0"/>
        <pt x="35" y="505" on="0"/>
        <pt x="35" y="608" on="1"/>
      </contour>
      <contour>
        <pt x="173" y="340" on="1"/>
        <pt x="287" y="340" on="1"/>
        <pt x="189" y="0" on="1"/>
        <pt x="65" y="0" on="1"/>
      </contour>
      <contour>
        <pt x="159" y="521" on="0"/>
        <pt x="193" y="521" on="1"/>
        <pt x="211" y="521" on="0"/>
        <pt x="228" y="564" on="0"/>
        <pt x="228" y="608" on="1"/>
        <pt x="228" y="654" on="0"/>
        <pt x="211" y="697" on="0"/>
        <pt x="193" y="697" on="1"/>
        <pt x="159" y="697" on="0"/>
        <pt x="159" y="608" on="1"/>
      </contour>
      <contour>
        <pt x="461" y="800" on="1"/>
        <pt x="585" y="800" on="1"/>
        <pt x="477" y="460" on="1"/>
        <pt x="363" y="460" on="1"/>
      </contour>
      <contour>
        <pt x="422" y="146" on="0"/>
        <pt x="439" y="103" on="0"/>
        <pt x="457" y="103" on="1"/>
        <pt x="491" y="103" on="0"/>
        <pt x="491" y="192" on="1"/>
        <pt x="491" y="279" on="0"/>
        <pt x="457" y="279" on="1"/>
        <pt x="439" y="279" on="0"/>
        <pt x="422" y="236" on="0"/>
        <pt x="422" y="192" on="1"/>
      </contour>
    </TTGlyph>
    <TTGlyph name="percent.cv02" xMin="35" yMin="-19" xMax="615" yMax="819">
      <contour>
        <pt x="382" y="-19" on="0"/>
        <pt x="298" y="73" on="0"/>
        <pt x="298" y="156" on="1"/>
        <pt x="298" y="238" on="0"/>
        <pt x="382" y="330" on="0"/>
        <pt x="457" y="330" on="1"/>
        <pt x="531" y="330" on="0"/>
        <pt x="615" y="238" on="0"/>
        <pt x="615" y="156" on="1"/>
        <pt x="615" y="74" on="0"/>
        <pt x="531" y="-19" on="0"/>
        <pt x="457" y="-19" on="1"/>
      </contour>
      <contour>
        <pt x="35" y="726" on="0"/>
        <pt x="119" y="819" on="0"/>
        <pt x="193" y="819" on="1"/>
        <pt x="268" y="819" on="0"/>
        <pt x="352" y="727" on="0"/>
        <pt x="352" y="644" on="1"/>
        <pt x="352" y="562" on="0"/>
        <pt x="268" y="470" on="0"/>
        <pt x="193" y="470" on="1"/>
        <pt x="119" y="470" on="0"/>
        <pt x="35" y="562" on="0"/>
        <pt x="35" y="644" on="1"/>
      </contour>
      <contour>
        <pt x="68" y="125" on="1"/>
        <pt x="582" y="819" on="1"/>
        <pt x="582" y="675" on="1"/>
        <pt x="68" y="-19" on="1"/>
      </contour>
      <contour>
        <pt x="159" y="591" on="0"/>
        <pt x="193" y="591" on="1"/>
        <pt x="228" y="591" on="0"/>
        <pt x="228" y="644" on="1"/>
        <pt x="228" y="697" on="0"/>
        <pt x="193" y="697" on="1"/>
        <pt x="159" y="697" on="0"/>
        <pt x="159" y="644" on="1"/>
      </contour>
      <contour>
        <pt x="422" y="103" on="0"/>
        <pt x="457" y="103" on="1"/>
        <pt x="491" y="103" on="0"/>
        <pt x="491" y="156" on="1"/>
        <pt x="491" y="209" on="0"/>
        <pt x="457" y="209" on="1"/>
        <pt x="422" y="209" on="0"/>
        <pt x="422" y="156" on="1"/>
      </contour>
    </TTGlyph>
    <TTGlyph name="period" xMin="210" yMin="-11" xMax="440" yMax="241">
      <contour>
        <pt x="269" y="-11" on="0"/>
        <pt x="210" y="53" on="0"/>
        <pt x="210" y="115" on="1"/>
        <pt x="210" y="177" on="0"/>
        <pt x="269" y="241" on="0"/>
        <pt x="325" y="241" on="1"/>
        <pt x="381" y="241" on="0"/>
        <pt x="440" y="177" on="0"/>
        <pt x="440" y="115" on="1"/>
        <pt x="440" y="53" on="0"/>
        <pt x="381" y="-11" on="0"/>
        <pt x="325" y="-11" on="1"/>
      </contour>
    </TTGlyph>
    <TTGlyph name="plus" xMin="59" yMin="84" xMax="591" yMax="616">
      <contour>
        <pt x="59" y="420" on="1"/>
        <pt x="255" y="420" on="1"/>
        <pt x="255" y="616" on="1"/>
        <pt x="395" y="616" on="1"/>
        <pt x="395" y="420" on="1"/>
        <pt x="591" y="420" on="1"/>
        <pt x="591" y="280" on="1"/>
        <pt x="395" y="280" on="1"/>
        <pt x="395" y="84" on="1"/>
        <pt x="255" y="84" on="1"/>
        <pt x="255" y="280" on="1"/>
        <pt x="59" y="280" on="1"/>
      </contour>
    </TTGlyph>
    <TTGlyph name="plus.case" xMin="59" yMin="134" xMax="591" yMax="666">
      <component glyphName="plus" x="0" y="50" flags="0x4"/>
    </TTGlyph>
    <TTGlyph name="q" xMin="41" yMin="-200" xMax="573" yMax="629">
      <contour>
        <pt x="298" y="629" on="0"/>
        <pt x="371" y="573" on="0"/>
        <pt x="381" y="524" on="1"/>
        <pt x="417" y="524" on="1"/>
        <pt x="417" y="613" on="1"/>
        <pt x="573" y="613" on="1"/>
        <pt x="573" y="-200" on="1"/>
        <pt x="417" y="-200" on="1"/>
        <pt x="417" y="89" on="1"/>
        <pt x="381" y="89" on="1"/>
        <pt x="371" y="40" on="0"/>
        <pt x="298" y="-16" on="0"/>
        <pt x="245" y="-16" on="1"/>
        <pt x="150" y="-16" on="0"/>
        <pt x="41" y="155" on="0"/>
        <pt x="41" y="307" on="1"/>
        <pt x="41" y="458" on="0"/>
        <pt x="150" y="629" on="0"/>
        <pt x="245" y="629" on="1"/>
      </contour>
      <contour>
        <pt x="193" y="216" on="0"/>
        <pt x="254" y="120" on="0"/>
        <pt x="310" y="120" on="1"/>
        <pt x="366" y="120" on="0"/>
        <pt x="427" y="216" on="0"/>
        <pt x="427" y="307" on="1"/>
        <pt x="427" y="397" on="0"/>
        <pt x="366" y="493" on="0"/>
        <pt x="310" y="493" on="1"/>
        <pt x="254" y="493" on="0"/>
        <pt x="193" y="397" on="0"/>
        <pt x="193" y="307" on="1"/>
      </contour>
    </TTGlyph>
    <TTGlyph name="question" xMin="57" yMin="-9" xMax="587" yMax="819">
      <contour>
        <pt x="234" y="316" on="0"/>
        <pt x="264" y="396" on="0"/>
        <pt x="308" y="442" on="0"/>
        <pt x="343" y="471" on="1"/>
        <pt x="382" y="501" on="0"/>
        <pt x="419" y="549" on="0"/>
        <pt x="419" y="589" on="1"/>
        <pt x="419" y="623" on="0"/>
        <pt x="374" y="663" on="0"/>
        <pt x="335" y="663" on="1"/>
        <pt x="289" y="663" on="0"/>
        <pt x="237" y="611" on="0"/>
        <pt x="233" y="563" on="1"/>
        <pt x="57" y="563" on="1"/>
        <pt x="67" y="686" on="0"/>
        <pt x="212" y="819" on="0"/>
        <pt x="336" y="819" on="1"/>
        <pt x="453" y="819" on="0"/>
        <pt x="587" y="696" on="0"/>
        <pt x="587" y="589" on="1"/>
        <pt x="587" y="536" on="0"/>
        <pt x="554" y="458" on="0"/>
        <pt x="508" y="409" on="0"/>
        <pt x="472" y="379" on="1"/>
        <pt x="431" y="345" on="0"/>
        <pt x="392" y="295" on="0"/>
        <pt x="393" y="258" on="1"/>
        <pt x="234" y="258" on="1"/>
      </contour>
      <contour>
        <pt x="208" y="148" on="0"/>
        <pt x="264" y="201" on="0"/>
        <pt x="317" y="201" on="1"/>
        <pt x="370" y="201" on="0"/>
        <pt x="425" y="148" on="0"/>
        <pt x="425" y="96" on="1"/>
        <pt x="425" y="45" on="0"/>
        <pt x="369" y="-9" on="0"/>
        <pt x="317" y="-9" on="1"/>
        <pt x="264" y="-9" on="0"/>
        <pt x="208" y="45" on="0"/>
        <pt x="208" y="96" on="1"/>
      </contour>
    </TTGlyph>
    <TTGlyph name="quotedbl" xMin="110" yMin="432" xMax="540" yMax="848">
      <component glyphName="quotesingle" x="-130" y="0" flags="0x0"/>
      <component glyphName="quotesingle" x="130" y="0" flags="0x0"/>
    </TTGlyph>
    <TTGlyph name="quotedblbase" xMin="49" yMin="-187" xMax="585" yMax="241">
      <component glyphName="comma" x="-150" y="0" flags="0x0"/>
      <component glyphName="comma" x="132" y="0" flags="0x0"/>
    </TTGlyph>
    <TTGlyph name="quotedblleft" xMin="65" yMin="415" xMax="601" yMax="843">
      <contour>
        <pt x="531" y="667" on="0"/>
        <pt x="590" y="603" on="0"/>
        <pt x="590" y="541" on="1"/>
        <pt x="590" y="479" on="0"/>
        <pt x="531" y="415" on="0"/>
        <pt x="475" y="415" on="1"/>
        <pt x="347" y="415" on="0"/>
        <pt x="347" y="573" on="1"/>
        <pt x="347" y="727" on="0"/>
        <pt x="423" y="843" on="1"/>
        <pt x="601" y="843" on="1"/>
        <pt x="477" y="765" on="0"/>
        <pt x="451" y="665" on="1"/>
        <pt x="467" y="667" on="0"/>
        <pt x="475" y="667" on="1"/>
      </contour>
      <contour>
        <pt x="65" y="727" on="0"/>
        <pt x="141" y="843" on="1"/>
        <pt x="319" y="843" on="1"/>
        <pt x="195" y="765" on="0"/>
        <pt x="169" y="665" on="1"/>
        <pt x="185" y="667" on="0"/>
        <pt x="193" y="667" on="1"/>
        <pt x="249" y="667" on="0"/>
        <pt x="308" y="603" on="0"/>
        <pt x="308" y="541" on="1"/>
        <pt x="308" y="479" on="0"/>
        <pt x="249" y="415" on="0"/>
        <pt x="193" y="415" on="1"/>
        <pt x="65" y="415" on="0"/>
        <pt x="65" y="573" on="1"/>
      </contour>
    </TTGlyph>
    <TTGlyph name="quotedblright" xMin="49" yMin="485" xMax="585" yMax="913">
      <component glyphName="quotedblbase" x="0" y="672" flags="0x4"/>
    </TTGlyph>
    <TTGlyph name="quoteleft" xMin="197" yMin="415" xMax="451" yMax="843">
      <contour>
        <pt x="381" y="667" on="0"/>
        <pt x="440" y="603" on="0"/>
        <pt x="440" y="541" on="1"/>
        <pt x="440" y="479" on="0"/>
        <pt x="381" y="415" on="0"/>
        <pt x="325" y="415" on="1"/>
        <pt x="197" y="415" on="0"/>
        <pt x="197" y="573" on="1"/>
        <pt x="197" y="727" on="0"/>
        <pt x="273" y="843" on="1"/>
        <pt x="451" y="843" on="1"/>
        <pt x="327" y="765" on="0"/>
        <pt x="301" y="665" on="1"/>
        <pt x="317" y="667" on="0"/>
        <pt x="325" y="667" on="1"/>
      </contour>
    </TTGlyph>
    <TTGlyph name="quoteright" xMin="199" yMin="485" xMax="453" yMax="913">
      <component glyphName="comma" x="0" y="672" flags="0x4"/>
    </TTGlyph>
    <TTGlyph name="quotesinglbase" xMin="199" yMin="-187" xMax="453" yMax="241">
      <component glyphName="comma" x="0" y="0" flags="0x0"/>
    </TTGlyph>
    <TTGlyph name="quotesingle" xMin="240" yMin="432" xMax="410" yMax="848">
      <contour>
        <pt x="410" y="848" on="1"/>
        <pt x="385" y="432" on="1"/>
        <pt x="265" y="432" on="1"/>
        <pt x="240" y="848" on="1"/>
      </contour>
    </TTGlyph>
    <TTGlyph name="r" xMin="74" yMin="0" xMax="610" yMax="630">
      <contour>
        <pt x="331" y="613" on="1"/>
        <pt x="331" y="528" on="1"/>
        <pt x="373" y="528" on="1"/>
        <pt x="393" y="630" on="0"/>
        <pt x="486" y="630" on="1"/>
        <pt x="547" y="630" on="0"/>
        <pt x="610" y="532" on="0"/>
        <pt x="610" y="438" on="1"/>
        <pt x="610" y="322" on="1"/>
        <pt x="445" y="322" on="1"/>
        <pt x="445" y="412" on="1"/>
        <pt x="445" y="483" on="0"/>
        <pt x="396" y="483" on="1"/>
        <pt x="363" y="483" on="0"/>
        <pt x="331" y="418" on="0"/>
        <pt x="331" y="350" on="1"/>
        <pt x="331" y="138" on="1"/>
        <pt x="482" y="138" on="1"/>
        <pt x="482" y="0" on="1"/>
        <pt x="85" y="0" on="1"/>
        <pt x="85" y="138" on="1"/>
        <pt x="178" y="138" on="1"/>
        <pt x="178" y="475" on="1"/>
        <pt x="74" y="475" on="1"/>
        <pt x="74" y="613" on="1"/>
      </contour>
    </TTGlyph>
    <TTGlyph name="s" xMin="85" yMin="-19" xMax="583" yMax="632">
      <contour>
        <pt x="245" y="116" on="0"/>
        <pt x="334" y="116" on="1"/>
        <pt x="375" y="116" on="0"/>
        <pt x="420" y="147" on="0"/>
        <pt x="420" y="176" on="1"/>
        <pt x="420" y="199" on="0"/>
        <pt x="388" y="225" on="0"/>
        <pt x="352" y="230" on="1"/>
        <pt x="276" y="241" on="1"/>
        <pt x="179" y="255" on="0"/>
        <pt x="87" y="347" on="0"/>
        <pt x="87" y="429" on="1"/>
        <pt x="87" y="523" on="0"/>
        <pt x="216" y="632" on="0"/>
        <pt x="327" y="632" on="1"/>
        <pt x="446" y="632" on="0"/>
        <pt x="577" y="518" on="0"/>
        <pt x="583" y="411" on="1"/>
        <pt x="436" y="411" on="1"/>
        <pt x="428" y="497" on="0"/>
        <pt x="327" y="497" on="1"/>
        <pt x="284" y="497" on="0"/>
        <pt x="237" y="465" on="0"/>
        <pt x="237" y="436" on="1"/>
        <pt x="237" y="412" on="0"/>
        <pt x="269" y="385" on="0"/>
        <pt x="305" y="380" on="1"/>
        <pt x="381" y="370" on="1"/>
        <pt x="478" y="356" on="0"/>
        <pt x="570" y="264" on="0"/>
        <pt x="570" y="184" on="1"/>
        <pt x="570" y="90" on="0"/>
        <pt x="443" y="-19" on="0"/>
        <pt x="334" y="-19" on="1"/>
        <pt x="221" y="-19" on="0"/>
        <pt x="93" y="88" on="0"/>
        <pt x="85" y="191" on="1"/>
        <pt x="233" y="191" on="1"/>
      </contour>
    </TTGlyph>
    <TTGlyph name="section" xMin="81" yMin="-216" xMax="569" yMax="816">
      <contour>
        <pt x="394" y="626" on="0"/>
        <pt x="361" y="660" on="0"/>
        <pt x="332" y="660" on="1"/>
        <pt x="306" y="660" on="0"/>
        <pt x="275" y="630" on="0"/>
        <pt x="275" y="604" on="1"/>
        <pt x="275" y="539" on="0"/>
        <pt x="359" y="519" on="1"/>
        <pt x="462" y="497" on="0"/>
        <pt x="569" y="390" on="0"/>
        <pt x="569" y="309" on="1"/>
        <pt x="569" y="237" on="0"/>
        <pt x="493" y="139" on="0"/>
        <pt x="423" y="119" on="1"/>
        <pt x="423" y="87" on="1"/>
        <pt x="478" y="76" on="0"/>
        <pt x="537" y="9" on="0"/>
        <pt x="537" y="-43" on="1"/>
        <pt x="537" y="-123" on="0"/>
        <pt x="426" y="-216" on="0"/>
        <pt x="329" y="-216" on="1"/>
        <pt x="219" y="-216" on="0"/>
        <pt x="98" y="-103" on="0"/>
        <pt x="91" y="6" on="1"/>
        <pt x="253" y="6" on="1"/>
        <pt x="256" y="-26" on="0"/>
        <pt x="289" y="-60" on="0"/>
        <pt x="318" y="-60" on="1"/>
        <pt x="344" y="-60" on="0"/>
        <pt x="375" y="-30" on="0"/>
        <pt x="375" y="-4" on="1"/>
        <pt x="375" y="61" on="0"/>
        <pt x="291" y="81" on="1"/>
        <pt x="188" y="103" on="0"/>
        <pt x="81" y="210" on="0"/>
        <pt x="81" y="291" on="1"/>
        <pt x="81" y="363" on="0"/>
        <pt x="157" y="461" on="0"/>
        <pt x="227" y="481" on="1"/>
        <pt x="227" y="513" on="1"/>
        <pt x="172" y="524" on="0"/>
        <pt x="113" y="591" on="0"/>
        <pt x="113" y="643" on="1"/>
        <pt x="113" y="723" on="0"/>
        <pt x="224" y="816" on="0"/>
        <pt x="321" y="816" on="1"/>
        <pt x="431" y="816" on="0"/>
        <pt x="552" y="703" on="0"/>
        <pt x="559" y="594" on="1"/>
        <pt x="397" y="594" on="1"/>
      </contour>
      <contour>
        <pt x="245" y="259" on="0"/>
        <pt x="287" y="213" on="0"/>
        <pt x="325" y="213" on="1"/>
        <pt x="363" y="213" on="0"/>
        <pt x="405" y="259" on="0"/>
        <pt x="405" y="300" on="1"/>
        <pt x="405" y="341" on="0"/>
        <pt x="363" y="387" on="0"/>
        <pt x="325" y="387" on="1"/>
        <pt x="287" y="387" on="0"/>
        <pt x="245" y="341" on="0"/>
        <pt x="245" y="300" on="1"/>
      </contour>
    </TTGlyph>
    <TTGlyph name="semicolon" xMin="199" yMin="-187" xMax="453" yMax="624">
      <component glyphName="period" x="0" y="383" flags="0x4"/>
      <component glyphName="comma" x="0" y="0" flags="0x0"/>
    </TTGlyph>
    <TTGlyph name="seven" xMin="59" yMin="0" xMax="571" yMax="800">
      <contour>
        <pt x="331" y="0" on="1"/>
        <pt x="156" y="0" on="1"/>
        <pt x="435" y="644" on="1"/>
        <pt x="59" y="644" on="1"/>
        <pt x="59" y="800" on="1"/>
        <pt x="571" y="800" on="1"/>
        <pt x="571" y="578" on="1"/>
      </contour>
    </TTGlyph>
    <TTGlyph name="six" xMin="47" yMin="-19" xMax="603" yMax="800">
      <contour>
        <pt x="239" y="-19" on="0"/>
        <pt x="114" y="51" on="0"/>
        <pt x="47" y="181" on="0"/>
        <pt x="47" y="269" on="1"/>
        <pt x="47" y="386" on="0"/>
        <pt x="116" y="500" on="1"/>
        <pt x="299" y="800" on="1"/>
        <pt x="486" y="800" on="1"/>
        <pt x="305" y="512" on="1"/>
        <pt x="333" y="494" on="1"/>
        <pt x="343" y="504" on="0"/>
        <pt x="381" y="516" on="0"/>
        <pt x="404" y="516" on="1"/>
        <pt x="460" y="516" on="0"/>
        <pt x="551" y="451" on="0"/>
        <pt x="603" y="339" on="0"/>
        <pt x="603" y="269" on="1"/>
        <pt x="603" y="181" on="0"/>
        <pt x="534" y="51" on="0"/>
        <pt x="407" y="-19" on="0"/>
        <pt x="322" y="-19" on="1"/>
      </contour>
      <contour>
        <pt x="216" y="207" on="0"/>
        <pt x="275" y="135" on="0"/>
        <pt x="325" y="135" on="1"/>
        <pt x="375" y="135" on="0"/>
        <pt x="434" y="207" on="0"/>
        <pt x="434" y="269" on="1"/>
        <pt x="434" y="331" on="0"/>
        <pt x="375" y="404" on="0"/>
        <pt x="325" y="404" on="1"/>
        <pt x="275" y="404" on="0"/>
        <pt x="216" y="331" on="0"/>
        <pt x="216" y="269" on="1"/>
      </contour>
    </TTGlyph>
    <TTGlyph name="slash" xMin="94" yMin="-170" xMax="556" yMax="848">
      <contour>
        <pt x="243" y="-170" on="1"/>
        <pt x="94" y="-170" on="1"/>
        <pt x="407" y="848" on="1"/>
        <pt x="556" y="848" on="1"/>
      </contour>
    </TTGlyph>
    <TTGlyph name="sterling" xMin="63" yMin="0" xMax="607" yMax="819">
      <contour>
        <pt x="183" y="263" on="0"/>
        <pt x="183" y="323" on="1"/>
        <pt x="183" y="328" on="0"/>
        <pt x="181" y="340" on="1"/>
        <pt x="63" y="340" on="1"/>
        <pt x="63" y="458" on="1"/>
        <pt x="129" y="458" on="1"/>
        <pt x="104" y="515" on="0"/>
        <pt x="104" y="574" on="1"/>
        <pt x="104" y="689" on="0"/>
        <pt x="235" y="819" on="0"/>
        <pt x="350" y="819" on="1"/>
        <pt x="465" y="819" on="0"/>
        <pt x="596" y="684" on="0"/>
        <pt x="607" y="553" on="1"/>
        <pt x="439" y="553" on="1"/>
        <pt x="433" y="607" on="0"/>
        <pt x="388" y="663" on="0"/>
        <pt x="350" y="663" on="1"/>
        <pt x="312" y="663" on="0"/>
        <pt x="270" y="616" on="0"/>
        <pt x="270" y="574" on="1"/>
        <pt x="270" y="544" on="0"/>
        <pt x="286" y="488" on="0"/>
        <pt x="301" y="458" on="1"/>
        <pt x="478" y="458" on="1"/>
        <pt x="478" y="340" on="1"/>
        <pt x="348" y="340" on="1"/>
        <pt x="349" y="334" on="0"/>
        <pt x="349" y="323" on="1"/>
        <pt x="349" y="256" on="0"/>
        <pt x="248" y="175" on="0"/>
        <pt x="141" y="156" on="1"/>
        <pt x="587" y="156" on="1"/>
        <pt x="587" y="0" on="1"/>
        <pt x="63" y="0" on="1"/>
        <pt x="63" y="252" on="1"/>
      </contour>
    </TTGlyph>
    <TTGlyph name="t" xMin="65" yMin="-19" xMax="590" yMax="772">
      <contour>
        <pt x="325" y="613" on="1"/>
        <pt x="574" y="613" on="1"/>
        <pt x="574" y="475" on="1"/>
        <pt x="325" y="475" on="1"/>
        <pt x="325" y="204" on="1"/>
        <pt x="325" y="161" on="0"/>
        <pt x="351" y="120" on="0"/>
        <pt x="379" y="120" on="1"/>
        <pt x="408" y="120" on="0"/>
        <pt x="439" y="176" on="0"/>
        <pt x="444" y="236" on="1"/>
        <pt x="590" y="236" on="1"/>
        <pt x="584" y="111" on="0"/>
        <pt x="473" y="-19" on="0"/>
        <pt x="373" y="-19" on="1"/>
        <pt x="273" y="-19" on="0"/>
        <pt x="169" y="95" on="0"/>
        <pt x="169" y="204" on="1"/>
        <pt x="169" y="475" on="1"/>
        <pt x="65" y="475" on="1"/>
        <pt x="65" y="613" on="1"/>
        <pt x="169" y="613" on="1"/>
        <pt x="169" y="772" on="1"/>
        <pt x="325" y="772" on="1"/>
      </contour>
    </TTGlyph>
    <TTGlyph name="three" xMin="37" yMin="-19" xMax="607" yMax="819">
      <contour>
        <pt x="603" y="106" on="0"/>
        <pt x="456" y="-19" on="0"/>
        <pt x="328" y="-19" on="1"/>
        <pt x="199" y="-19" on="0"/>
        <pt x="49" y="120" on="0"/>
        <pt x="40" y="247" on="1"/>
        <pt x="213" y="247" on="1"/>
        <pt x="218" y="192" on="0"/>
        <pt x="276" y="135" on="0"/>
        <pt x="328" y="135" on="1"/>
        <pt x="378" y="135" on="0"/>
        <pt x="433" y="186" on="0"/>
        <pt x="433" y="232" on="1"/>
        <pt x="433" y="277" on="0"/>
        <pt x="383" y="327" on="0"/>
        <pt x="338" y="327" on="1"/>
        <pt x="264" y="327" on="1"/>
        <pt x="264" y="472" on="1"/>
        <pt x="338" y="472" on="1"/>
        <pt x="385" y="472" on="0"/>
        <pt x="436" y="521" on="0"/>
        <pt x="436" y="565" on="1"/>
        <pt x="436" y="612" on="0"/>
        <pt x="382" y="665" on="0"/>
        <pt x="333" y="665" on="1"/>
        <pt x="279" y="665" on="0"/>
        <pt x="216" y="602" on="0"/>
        <pt x="211" y="543" on="1"/>
        <pt x="37" y="543" on="1"/>
        <pt x="46" y="675" on="0"/>
        <pt x="201" y="819" on="0"/>
        <pt x="334" y="819" on="1"/>
        <pt x="461" y="819" on="0"/>
        <pt x="607" y="691" on="0"/>
        <pt x="607" y="580" on="1"/>
        <pt x="607" y="514" on="0"/>
        <pt x="534" y="427" on="0"/>
        <pt x="472" y="418" on="1"/>
        <pt x="472" y="381" on="1"/>
        <pt x="533" y="372" on="0"/>
        <pt x="603" y="283" on="0"/>
        <pt x="603" y="214" on="1"/>
      </contour>
    </TTGlyph>
    <TTGlyph name="two" xMin="55" yMin="0" xMax="603" yMax="819">
      <contour>
        <pt x="392" y="457" on="0"/>
        <pt x="434" y="522" on="0"/>
        <pt x="434" y="563" on="1"/>
        <pt x="434" y="610" on="0"/>
        <pt x="385" y="663" on="0"/>
        <pt x="341" y="663" on="1"/>
        <pt x="292" y="663" on="0"/>
        <pt x="235" y="602" on="0"/>
        <pt x="229" y="543" on="1"/>
        <pt x="55" y="543" on="1"/>
        <pt x="63" y="675" on="0"/>
        <pt x="212" y="819" on="0"/>
        <pt x="341" y="819" on="1"/>
        <pt x="463" y="819" on="0"/>
        <pt x="603" y="682" on="0"/>
        <pt x="603" y="563" on="1"/>
        <pt x="603" y="486" on="0"/>
        <pt x="517" y="356" on="0"/>
        <pt x="428" y="296" on="1"/>
        <pt x="224" y="156" on="1"/>
        <pt x="585" y="156" on="1"/>
        <pt x="585" y="0" on="1"/>
        <pt x="72" y="0" on="1"/>
        <pt x="72" y="225" on="1"/>
        <pt x="346" y="423" on="1"/>
      </contour>
    </TTGlyph>
    <TTGlyph name="u" xMin="74" yMin="-19" xMax="567" yMax="613">
      <contour>
        <pt x="411" y="0" on="1"/>
        <pt x="411" y="94" on="1"/>
        <pt x="375" y="94" on="1"/>
        <pt x="365" y="39" on="0"/>
        <pt x="295" y="-19" on="0"/>
        <pt x="239" y="-19" on="1"/>
        <pt x="161" y="-19" on="0"/>
        <pt x="74" y="100" on="0"/>
        <pt x="74" y="206" on="1"/>
        <pt x="74" y="613" on="1"/>
        <pt x="230" y="613" on="1"/>
        <pt x="230" y="252" on="1"/>
        <pt x="230" y="129" on="0"/>
        <pt x="321" y="129" on="1"/>
        <pt x="367" y="129" on="0"/>
        <pt x="411" y="190" on="0"/>
        <pt x="411" y="252" on="1"/>
        <pt x="411" y="613" on="1"/>
        <pt x="567" y="613" on="1"/>
        <pt x="567" y="0" on="1"/>
      </contour>
    </TTGlyph>
    <TTGlyph name="underscore" xMin="77" yMin="-162" xMax="573" yMax="-50">
      <contour>
        <pt x="573" y="-50" on="1"/>
        <pt x="573" y="-162" on="1"/>
        <pt x="77" y="-162" on="1"/>
        <pt x="77" y="-50" on="1"/>
      </contour>
    </TTGlyph>
    <TTGlyph name="uni0237" xMin="59" yMin="-219" xMax="493" yMax="613">
      <contour>
        <pt x="493" y="613" on="1"/>
        <pt x="493" y="-13" on="1"/>
        <pt x="493" y="-111" on="0"/>
        <pt x="379" y="-219" on="0"/>
        <pt x="276" y="-219" on="1"/>
        <pt x="177" y="-219" on="0"/>
        <pt x="64" y="-122" on="0"/>
        <pt x="59" y="-33" on="1"/>
        <pt x="213" y="-33" on="1"/>
        <pt x="219" y="-87" on="0"/>
        <pt x="274" y="-87" on="1"/>
        <pt x="337" y="-87" on="0"/>
        <pt x="337" y="-14" on="1"/>
        <pt x="337" y="475" on="1"/>
        <pt x="105" y="475" on="1"/>
        <pt x="105" y="613" on="1"/>
      </contour>
    </TTGlyph>
    <TTGlyph name="uni0306.cy" xMin="6" yMin="866" xMax="365" yMax="1024">
      <contour>
        <pt x="142" y="991" on="0"/>
        <pt x="164" y="961" on="0"/>
        <pt x="185" y="961" on="1"/>
        <pt x="206" y="961" on="0"/>
        <pt x="228" y="991" on="0"/>
        <pt x="230" y="1024" on="1"/>
        <pt x="365" y="1024" on="1"/>
        <pt x="358" y="947" on="0"/>
        <pt x="266" y="866" on="0"/>
        <pt x="185" y="866" on="1"/>
        <pt x="104" y="866" on="0"/>
        <pt x="13" y="947" on="0"/>
        <pt x="6" y="1024" on="1"/>
        <pt x="140" y="1024" on="1"/>
      </contour>
    </TTGlyph>
    <TTGlyph name="uni0307" xMin="-20" yMin="692" xMax="188" yMax="872">
      <contour>
        <pt x="35" y="692" on="0"/>
        <pt x="-20" y="740" on="0"/>
        <pt x="-20" y="782" on="1"/>
        <pt x="-20" y="824" on="0"/>
        <pt x="35" y="872" on="0"/>
        <pt x="84" y="872" on="1"/>
        <pt x="133" y="872" on="0"/>
        <pt x="188" y="824" on="0"/>
        <pt x="188" y="782" on="1"/>
        <pt x="188" y="740" on="0"/>
        <pt x="133" y="692" on="0"/>
        <pt x="84" y="692" on="1"/>
      </contour>
    </TTGlyph>
    <TTGlyph name="uni0308" xMin="-156" yMin="836" xMax="256" yMax="1008">
      <contour>
        <pt x="-112" y="836" on="0"/>
        <pt x="-156" y="882" on="0"/>
        <pt x="-156" y="922" on="1"/>
        <pt x="-156" y="962" on="0"/>
        <pt x="-112" y="1008" on="0"/>
        <pt x="-73" y="1008" on="1"/>
        <pt x="-34" y="1008" on="0"/>
        <pt x="10" y="962" on="0"/>
        <pt x="10" y="922" on="1"/>
        <pt x="10" y="882" on="0"/>
        <pt x="-34" y="836" on="0"/>
        <pt x="-73" y="836" on="1"/>
      </contour>
      <contour>
        <pt x="90" y="962" on="0"/>
        <pt x="134" y="1008" on="0"/>
        <pt x="173" y="1008" on="1"/>
        <pt x="212" y="1008" on="0"/>
        <pt x="256" y="962" on="0"/>
        <pt x="256" y="922" on="1"/>
        <pt x="256" y="882" on="0"/>
        <pt x="212" y="836" on="0"/>
        <pt x="173" y="836" on="1"/>
        <pt x="134" y="836" on="0"/>
        <pt x="90" y="882" on="0"/>
        <pt x="90" y="922" on="1"/>
      </contour>
    </TTGlyph>
    <TTGlyph name="uni043D" xMin="83" yMin="0" xMax="568" yMax="613">
      <contour>
        <pt x="239" y="613" on="1"/>
        <pt x="239" y="375" on="1"/>
        <pt x="411" y="375" on="1"/>
        <pt x="411" y="229" on="1"/>
        <pt x="239" y="229" on="1"/>
        <pt x="239" y="0" on="1"/>
        <pt x="83" y="0" on="1"/>
        <pt x="83" y="613" on="1"/>
      </contour>
      <contour>
        <pt x="412" y="613" on="1"/>
        <pt x="568" y="613" on="1"/>
        <pt x="568" y="0" on="1"/>
        <pt x="412" y="0" on="1"/>
      </contour>
    </TTGlyph>
    <TTGlyph name="uni043E" xMin="56" yMin="-19" xMax="594" yMax="632">
      <component glyphName="o" x="0" y="0" flags="0x0"/>
    </TTGlyph>
    <TTGlyph name="uni20BD" xMin="42" yMin="0" xMax="620" yMax="800">
      <contour>
        <pt x="441" y="800" on="0"/>
        <pt x="557" y="739" on="0"/>
        <pt x="620" y="627" on="0"/>
        <pt x="620" y="553" on="1"/>
        <pt x="620" y="479" on="0"/>
        <pt x="557" y="368" on="0"/>
        <pt x="441" y="307" on="0"/>
        <pt x="365" y="307" on="1"/>
        <pt x="279" y="307" on="1"/>
        <pt x="279" y="253" on="1"/>
        <pt x="439" y="253" on="1"/>
        <pt x="439" y="123" on="1"/>
        <pt x="279" y="123" on="1"/>
        <pt x="279" y="0" on="1"/>
        <pt x="123" y="0" on="1"/>
        <pt x="123" y="123" on="1"/>
        <pt x="42" y="123" on="1"/>
        <pt x="42" y="253" on="1"/>
        <pt x="123" y="253" on="1"/>
        <pt x="123" y="307" on="1"/>
        <pt x="42" y="307" on="1"/>
        <pt x="42" y="437" on="1"/>
        <pt x="123" y="437" on="1"/>
        <pt x="123" y="800" on="1"/>
        <pt x="365" y="800" on="1"/>
      </contour>
      <contour>
        <pt x="352" y="447" on="1"/>
        <pt x="401" y="447" on="0"/>
        <pt x="455" y="500" on="0"/>
        <pt x="455" y="547" on="1"/>
        <pt x="455" y="594" on="0"/>
        <pt x="401" y="647" on="0"/>
        <pt x="352" y="647" on="1"/>
        <pt x="279" y="647" on="1"/>
        <pt x="279" y="447" on="1"/>
      </contour>
    </TTGlyph>
    <TTGlyph name="v" xMin="33" yMin="0" xMax="617" yMax="613">
      <contour>
        <pt x="191" y="613" on="1"/>
        <pt x="328" y="88" on="1"/>
        <pt x="466" y="613" on="1"/>
        <pt x="617" y="613" on="1"/>
        <pt x="448" y="0" on="1"/>
        <pt x="201" y="0" on="1"/>
        <pt x="33" y="613" on="1"/>
      </contour>
    </TTGlyph>
    <TTGlyph name="w" xMin="21" yMin="0" xMax="629" yMax="613">
      <contour>
        <pt x="171" y="613" on="1"/>
        <pt x="215" y="103" on="1"/>
        <pt x="252" y="613" on="1"/>
        <pt x="406" y="613" on="1"/>
        <pt x="442" y="105" on="1"/>
        <pt x="485" y="613" on="1"/>
        <pt x="629" y="613" on="1"/>
        <pt x="543" y="0" on="1"/>
        <pt x="366" y="0" on="1"/>
        <pt x="327" y="510" on="1"/>
        <pt x="287" y="0" on="1"/>
        <pt x="107" y="0" on="1"/>
        <pt x="21" y="613" on="1"/>
      </contour>
    </TTGlyph>
    <TTGlyph name="x" xMin="42" yMin="0" xMax="608" yMax="613">
      <contour>
        <pt x="203" y="294" on="1"/>
        <pt x="42" y="613" on="1"/>
        <pt x="208" y="613" on="1"/>
        <pt x="325" y="372" on="1"/>
        <pt x="447" y="613" on="1"/>
        <pt x="608" y="613" on="1"/>
        <pt x="445" y="302" on="1"/>
        <pt x="597" y="0" on="1"/>
        <pt x="431" y="0" on="1"/>
        <pt x="323" y="222" on="1"/>
        <pt x="213" y="0" on="1"/>
        <pt x="53" y="0" on="1"/>
      </contour>
    </TTGlyph>
    <TTGlyph name="y" xMin="29" yMin="-219" xMax="622" yMax="613">
      <contour>
        <pt x="195" y="613" on="1"/>
        <pt x="342" y="104" on="1"/>
        <pt x="458" y="613" on="1"/>
        <pt x="622" y="613" on="1"/>
        <pt x="457" y="-58" on="1"/>
        <pt x="418" y="-219" on="0"/>
        <pt x="267" y="-219" on="1"/>
        <pt x="185" y="-219" on="0"/>
        <pt x="87" y="-124" on="0"/>
        <pt x="73" y="-31" on="1"/>
        <pt x="224" y="-31" on="1"/>
        <pt x="230" y="-60" on="0"/>
        <pt x="251" y="-86" on="0"/>
        <pt x="268" y="-86" on="1"/>
        <pt x="284" y="-86" on="0"/>
        <pt x="305" y="-59" on="0"/>
        <pt x="312" y="-29" on="1"/>
        <pt x="330" y="50" on="1"/>
        <pt x="204" y="50" on="1"/>
        <pt x="29" y="613" on="1"/>
      </contour>
    </TTGlyph>
    <TTGlyph name="yen" xMin="21" yMin="0" xMax="631" yMax="800">
      <contour>
        <pt x="327" y="474" on="1"/>
        <pt x="460" y="800" on="1"/>
        <pt x="631" y="800" on="1"/>
        <pt x="447" y="395" on="1"/>
        <pt x="557" y="395" on="1"/>
        <pt x="557" y="285" on="1"/>
        <pt x="407" y="285" on="1"/>
        <pt x="407" y="218" on="1"/>
        <pt x="557" y="218" on="1"/>
        <pt x="557" y="108" on="1"/>
        <pt x="407" y="108" on="1"/>
        <pt x="407" y="0" on="1"/>
        <pt x="245" y="0" on="1"/>
        <pt x="245" y="108" on="1"/>
        <pt x="93" y="108" on="1"/>
        <pt x="93" y="218" on="1"/>
        <pt x="245" y="218" on="1"/>
        <pt x="245" y="285" on="1"/>
        <pt x="93" y="285" on="1"/>
        <pt x="93" y="395" on="1"/>
        <pt x="205" y="395" on="1"/>
        <pt x="21" y="800" on="1"/>
        <pt x="195" y="800" on="1"/>
      </contour>
    </TTGlyph>
    <TTGlyph name="z" xMin="94" yMin="0" xMax="556" yMax="613">
      <contour>
        <pt x="556" y="613" on="1"/>
        <pt x="556" y="368" on="1"/>
        <pt x="181" y="138" on="1"/>
        <pt x="556" y="138" on="1"/>
        <pt x="556" y="0" on="1"/>
        <pt x="94" y="0" on="1"/>
        <pt x="94" y="245" on="1"/>
        <pt x="469" y="475" on="1"/>
        <pt x="94" y="475" on="1"/>
        <pt x="94" y="613" on="1"/>
      </contour>
    </TTGlyph>
    <TTGlyph name="zero" xMin="35" yMin="-19" xMax="615" yMax="819">
      <contour>
        <pt x="35" y="-19" on="0"/>
        <pt x="35" y="400" on="1"/>
        <pt x="35" y="819" on="0"/>
        <pt x="325" y="819" on="1"/>
        <pt x="615" y="819" on="0"/>
        <pt x="615" y="400" on="1"/>
        <pt x="615" y="-19" on="0"/>
        <pt x="325" y="-19" on="1"/>
      </contour>
      <contour>
        <pt x="197" y="379" on="1"/>
        <pt x="432" y="580" on="1"/>
        <pt x="403" y="671" on="0"/>
        <pt x="325" y="671" on="1"/>
        <pt x="259" y="671" on="0"/>
        <pt x="197" y="540" on="0"/>
        <pt x="197" y="400" on="1"/>
      </contour>
      <contour>
        <pt x="233" y="174" on="0"/>
        <pt x="286" y="129" on="0"/>
        <pt x="325" y="129" on="1"/>
        <pt x="391" y="129" on="0"/>
        <pt x="453" y="260" on="0"/>
        <pt x="453" y="400" on="1"/>
        <pt x="453" y="422" on="1"/>
        <pt x="218" y="221" on="1"/>
      </contour>
    </TTGlyph>
</ttFont>
